<?xml version="1.0" encoding="UTF-8" standalone="no"?>
<!-- Created with Inkscape (http://www.inkscape.org/) -->

<svg
   width="22"
   height="22"
   viewBox="0 0 22 22"
   version="1.1"
   id="svg1"
   inkscape:version="1.4 (e7c3feb100, 2024-10-09)"
   sodipodi:docname="thunderbird-panel.svg"
   xmlns:inkscape="http://www.inkscape.org/namespaces/inkscape"
   xmlns:sodipodi="http://sodipodi.sourceforge.net/DTD/sodipodi-0.dtd"
   xmlns="http://www.w3.org/2000/svg"
   xmlns:svg="http://www.w3.org/2000/svg">
  <sodipodi:namedview
     id="namedview1"
     pagecolor="#ffffff"
     bordercolor="#000000"
     borderopacity="0.25"
     inkscape:showpageshadow="2"
     inkscape:pageopacity="0.0"
     inkscape:pagecheckerboard="0"
     inkscape:deskcolor="#d1d1d1"
     inkscape:document-units="px"
     inkscape:zoom="26.227273"
     inkscape:cx="11"
     inkscape:cy="11"
     inkscape:window-width="1536"
     inkscape:window-height="792"
     inkscape:window-x="0"
     inkscape:window-y="0"
     inkscape:window-maximized="1"
     inkscape:current-layer="svg1" />
  <defs
     id="defs1">
    <style
       type="text/css"
       id="current-color-scheme">
        .ColorScheme-Text {
        color:#31363b;
        }
        .ColorScheme-Background {
        color:#eff0f1;
        }
        .ColorScheme-Accent {
        color:#3daee9;
        }
        .ColorScheme-ButtonText {
        color:#31363b;
        }
     </style>
  </defs>
  <path
     d="M 14.429688,3 C 12.289685,3 10.010313,3.9403125 9.5703125,5.5703125 8.8204445,5.8960128 8.3871947,6.3811436 8.2207031,6.8496094 7.7310944,7.1800781 7.3039178,7.5946907 6.9589844,8.0742188 6.9033296,6.4977812 6.7699848,5 6.4394531,5 6.2794531,5 6.2695312,5.1308594 6.2695312,5.1308594 6.2195316,5.5308594 6.12,5.77 6,6 5.72,6.53 5.3203125,6.7398438 5.0703125,7.0898438 4.5303125,7.8498437 4,9.05 4,10 3.8,9.57 3.8602344,8.7998435 3.7402344,8.3398438 c -0.01,-0.05 -0.079922,-0.1992188 -0.1699219,-0.1992188 -0.01,0 -0.031016,0.00953 -0.041016,0.019531 -0.09,0.05 -0.1492187,0.1800782 -0.1992188,0.3300782 C 3.1200781,9.200235 3,10.28 3,11 c 0,4.57 3.43,8 8,8 4.57,0 8,-3.38 8,-8 0,-1.69 -0.509687,-3.750625 -1.429688,-5.140625 0.380004,-0.07 0.780623,-0.07 1.140626,0 C 18.220936,5.289375 17.570937,5.1 16.710938,5 17.000934,4.59 17.43,4.03 18,4 17.05,3.19 15.969687,3 14.429688,3 Z m 0,1 c 0.710013,0 1.240901,0.038238 1.691406,0.1445312 -0.06489,0.091218 -0.175969,0.205814 -0.226563,0.2773438 l -0.972656,1.3769531 1.527344,0.1777344 0.287109,0.4355469 C 17.499095,7.5645503 18,9.5110604 18,11 c 0,4.125051 -2.923071,7 -7,7 -4.0696353,0 -7,-2.930365 -7,-7 0,-0.218945 0.4999275,0.62724 1,1 V 10 C 5,9.4225725 5.4539087,8.2790079 5.8847656,7.671875 V 7.669925 C 5.8881156,7.665265 5.9300406,7.61717 5.9355466,7.611331 5.9928892,8.8098229 6,10.192136 6,11 c 0,2.761424 2.2385763,5 5,5 2.761424,0 5,-2.238576 5,-5 0,-2.7614237 -2.238576,-5 -5,-5 -0.174356,0.00327 -0.348422,0.015654 -0.521484,0.037109 l 0.05664,-0.2070309 C 10.654537,5.3878258 11.078755,4.9273043 11.804688,4.5703125 12.53062,4.2133207 13.506152,4 14.429688,4 Z M 11,7 c 1.235157,0 2.338525,0.5596861 3.072266,1.4394531 L 11,11 7.9277344,8.4394531 C 8.6614752,7.5596861 9.764843,7 11,7 Z m -6.2929688,1.0878906 0.013672,0.056641 c -0.00245,-0.012243 -0.00736,-0.010112 -0.00977,-0.021484 -0.00339,-0.013748 -2.634e-4,-0.021235 -0.00391,-0.035156 z M 7.4921875,9.078125 11,12 14.507812,9.078125 C 14.821193,9.6487048 15,10.303063 15,11 15,13.209139 13.209139,15 11,15 8.790861,15 7,13.209139 7,11 7,10.303063 7.1788067,9.6487048 7.4921875,9.078125 Z"
     style="fill:currentColor;stroke:none;stroke-linecap:square"
     class="ColorScheme-Text"
     id="path1" />
</svg>
