<?xml version="1.0" encoding="UTF-8" standalone="no"?>
<!-- Created with Inkscape (http://www.inkscape.org/) -->

<svg
   width="16"
   height="16"
   viewBox="0 0 16 16"
   version="1.1"
   id="svg1"
   inkscape:version="1.4 (e7c3feb100, 2024-10-09)"
   sodipodi:docname="thunderbird-panel.svg"
   xmlns:inkscape="http://www.inkscape.org/namespaces/inkscape"
   xmlns:sodipodi="http://sodipodi.sourceforge.net/DTD/sodipodi-0.dtd"
   xmlns="http://www.w3.org/2000/svg"
   xmlns:svg="http://www.w3.org/2000/svg">
  <sodipodi:namedview
     id="namedview1"
     pagecolor="#ffffff"
     bordercolor="#000000"
     borderopacity="0.25"
     inkscape:showpageshadow="2"
     inkscape:pageopacity="0.0"
     inkscape:pagecheckerboard="0"
     inkscape:deskcolor="#d1d1d1"
     inkscape:document-units="px"
     inkscape:zoom="36.0625"
     inkscape:cx="8"
     inkscape:cy="8"
     inkscape:window-width="1536"
     inkscape:window-height="792"
     inkscape:window-x="0"
     inkscape:window-y="0"
     inkscape:window-maximized="1"
     inkscape:current-layer="svg1" />
  <defs
     id="defs1">
    <style
       type="text/css"
       id="current-color-scheme">
        .ColorScheme-Text {
        color:#31363b;
        }
        .ColorScheme-Background {
        color:#eff0f1;
        }
        .ColorScheme-Accent {
        color:#3daee9;
        }
        .ColorScheme-ButtonText {
        color:#31363b;
        }
     </style>
  </defs>
  <path
     d="M 11.429688,0 C 9.2896855,0 7.0103125,0.9403125 6.5703125,2.5703125 5.8204445,2.8960128 5.3871947,3.3811436 5.2207031,3.8496094 4.7310944,4.1800781 4.3039178,4.5946907 3.9589844,5.0742188 3.9033296,3.4977812 3.7699848,2 3.4394531,2 3.2794531,2 3.2695312,2.1308594 3.2695312,2.1308594 3.2195316,2.5308594 3.12,2.77 3,3 2.72,3.53 2.3203125,3.7398438 2.0703125,4.0898438 1.5303125,4.8498437 1,6.05 1,7 0.8,6.57 0.86023437,5.7998435 0.74023438,5.3398438 c -0.01,-0.05 -0.0799219,-0.1992188 -0.16992188,-0.1992188 -0.01,0 -0.0310156,0.00953 -0.0410156,0.019531 -0.09,0.05 -0.14921874,0.1800782 -0.19921876,0.3300782 C 0.12007811,6.200235 0,7.28 0,8 c 0,4.57 3.43,8 8,8 4.57,0 8,-3.38 8,-8 0,-1.69 -0.509687,-3.750625 -1.429688,-5.140625 0.380004,-0.07 0.780623,-0.07 1.140626,0 C 15.220936,2.289375 14.570937,2.1 13.710938,2 14.000934,1.59 14.43,1.03 15,1 14.05,0.19 12.969687,0 11.429688,0 Z m 0,1 c 0.710013,0 1.240901,0.038238 1.691406,0.1445312 -0.06489,0.091218 -0.175969,0.205814 -0.226563,0.2773438 l -0.972656,1.3769531 1.527344,0.1777344 0.287109,0.4355469 C 14.499095,4.5645503 15,6.5110604 15,8 15,12.125051 12.076929,15 8,15 3.9303647,15 1,12.069635 1,8 1,7.7810552 1.4999275,8.6272402 2,9 V 7 C 2,6.4225725 2.4539087,5.2790079 2.8847656,4.671875 V 4.669925 C 2.8881156,4.665265 2.9300406,4.61717 2.9355466,4.611331 2.9928892,5.8098229 3,7.1921357 3,8 c 0,2.761424 2.2385763,5 5,5 2.761424,0 5,-2.238576 5,-5 C 13,5.2385763 10.761424,3 8,3 7.8256437,3.0032673 7.6515777,3.0156541 7.4785156,3.0371094 L 7.5351562,2.8300781 C 7.6545372,2.3878258 8.0787554,1.9273043 8.8046875,1.5703125 9.5306196,1.2133207 10.506152,1 11.429688,1 Z M 8,4 c 1.235157,0 2.338525,0.5596861 3.072266,1.4394531 L 8,8 4.9277344,5.4394531 C 5.6614752,4.5596861 6.764843,4 8,4 Z m -6.2929688,1.0878906 0.013672,0.056641 c -0.00245,-0.012243 -0.00736,-0.010112 -0.00977,-0.021484 -0.00339,-0.013748 -2.634e-4,-0.021235 -0.00391,-0.035156 z M 4.4921875,6.078125 8,9 11.507812,6.078125 C 11.821193,6.6487048 12,7.303063 12,8 12,10.209139 10.209139,12 8,12 5.790861,12 4,10.209139 4,8 4,7.303063 4.1788067,6.6487048 4.4921875,6.078125 Z"
     style="fill:currentColor;stroke:none;stroke-linecap:square"
     class="ColorScheme-Text"
     id="path1" />
</svg>
