<?xml version="1.0" encoding="UTF-8" standalone="no"?>
<svg
   width="22"
   height="22"
   version="1.1"
   id="svg1"
   sodipodi:docname="obs-tray.svg"
   inkscape:version="1.4.2 (ebf0e940d0, 2025-05-08)"
   xmlns:inkscape="http://www.inkscape.org/namespaces/inkscape"
   xmlns:sodipodi="http://sodipodi.sourceforge.net/DTD/sodipodi-0.dtd"
   xmlns="http://www.w3.org/2000/svg"
   xmlns:svg="http://www.w3.org/2000/svg">
  <sodipodi:namedview
     id="namedview1"
     pagecolor="#ffffff"
     bordercolor="#000000"
     borderopacity="0.25"
     inkscape:showpageshadow="2"
     inkscape:pageopacity="0.0"
     inkscape:pagecheckerboard="0"
     inkscape:deskcolor="#d1d1d1"
     inkscape:zoom="36.227273"
     inkscape:cx="11"
     inkscape:cy="11"
     inkscape:window-width="1920"
     inkscape:window-height="1011"
     inkscape:window-x="0"
     inkscape:window-y="0"
     inkscape:window-maximized="1"
     inkscape:current-layer="svg1" />
  <defs
     id="defs1">
    <style
       id="current-color-scheme"
       type="text/css">
   .ColorScheme-Text { color:#fcfcfc; } .ColorScheme-Highlight { color:#3daee9; }
  </style>
  </defs>
  <path
     id="path1"
     style="fill:currentColor"
     class="ColorScheme-Text"
     d="M 11 3 A 8 8 0 0 0 3 11 A 8 8 0 0 0 11 19 A 8 8 0 0 0 19 11 A 8 8 0 0 0 11 3 z M 11 4 A 7 7 0 0 1 18 11 A 7 7 0 0 1 11 18 A 7 7 0 0 1 4 11 A 7 7 0 0 1 11 4 z M 9.2949219 5.2539062 C 8.5566051 5.4712876 7.8669509 5.8287062 7.2636719 6.3066406 C 7.027316 6.825883 6.8698686 7.4924213 6.8710938 8.0410156 C 6.8722937 8.5535596 6.9969743 9.1604364 7.1914062 9.6464844 C 7.2427662 9.7748044 7.3046344 9.9473643 7.4902344 10.0625 C 7.6758504 10.1777 7.8097417 10.172399 7.9960938 10.193359 C 8.1580137 10.211599 8.492737 10.287009 8.640625 10.337891 C 10.130097 10.850323 10.830155 12.556375 10.130859 13.984375 C 9.6616908 14.942391 8.5330316 15.577228 7.5410156 15.464844 C 7.4125356 15.450444 7.3179086 15.442739 7.2304688 15.443359 C 7.1867887 15.443663 7.1555678 15.436554 7.0625 15.464844 C 7.0534 15.467344 7.0397818 15.473246 7.0273438 15.478516 C 7.4638416 15.866755 7.9546982 16.189168 8.484375 16.435547 C 8.8464853 16.435516 9.2052979 16.409997 9.5039062 16.318359 L 9.5351562 16.308594 L 9.5566406 16.296875 L 9.5625 16.292969 C 10.37306 16.028409 11.223279 15.433644 11.693359 14.773438 L 11.945312 14.423828 L 11.712891 13.726562 C 11.174171 12.096483 12.123882 10.506529 13.794922 10.224609 C 13.941962 10.199809 14.089162 10.189839 14.238281 10.193359 C 15.276633 10.217999 16.300741 10.912124 16.675781 11.910156 C 16.705541 11.989516 16.726894 12.049512 16.746094 12.097656 C 16.755694 12.121656 16.765984 12.141696 16.777344 12.166016 C 16.783744 12.178816 16.788108 12.189784 16.798828 12.208984 C 16.803628 12.218584 16.811546 12.230574 16.822266 12.246094 C 16.827666 12.253894 16.837969 12.265104 16.849609 12.277344 C 16.94537 11.858211 16.995782 11.42994 17 11 C 16.9976 10.787183 16.983944 10.574643 16.958984 10.363281 L 16.958984 10.361328 C 16.793303 10.097629 16.60255 9.8451086 16.367188 9.6132812 C 15.709587 8.9622412 14.909131 8.5760986 13.962891 8.4492188 C 13.822091 8.4303388 13.704199 8.3957569 13.511719 8.4667969 C 13.319239 8.5371969 13.224769 8.6907894 13.167969 8.7871094 C 13.085889 8.9259894 12.617549 9.4049056 12.355469 9.5722656 C 11.611789 10.047466 10.33999 10.047626 9.59375 9.5722656 C 8.71135 9.0101856 8.2065144 7.9073869 8.3652344 6.9355469 C 8.4551544 6.3854669 8.690765 5.9082869 9.078125 5.4980469 C 9.158605 5.4127669 9.2183941 5.3460716 9.2675781 5.2910156 C 9.2780896 5.2792406 9.2859896 5.2647709 9.2949219 5.2539062 z " />
</svg>
