<?xml version="1.0" encoding="UTF-8" standalone="no"?>
<svg
   width="48"
   version="1.1"
   height="48"
   viewBox="0 0 48 48"
   id="svg30"
   sodipodi:docname="discord-canary.svg"
   inkscape:version="1.2.2 (b0a8486541, 2022-12-01)"
   xmlns:inkscape="http://www.inkscape.org/namespaces/inkscape"
   xmlns:sodipodi="http://sodipodi.sourceforge.net/DTD/sodipodi-0.dtd"
   xmlns:xlink="http://www.w3.org/1999/xlink"
   xmlns="http://www.w3.org/2000/svg"
   xmlns:svg="http://www.w3.org/2000/svg"
   xmlns:rdf="http://www.w3.org/1999/02/22-rdf-syntax-ns#"
   xmlns:cc="http://creativecommons.org/ns#"
   xmlns:dc="http://purl.org/dc/elements/1.1/">
  <metadata
     id="metadata34">
    <rdf:RDF>
      <cc:Work
         rdf:about="">
        <dc:format>image/svg+xml</dc:format>
        <dc:type
           rdf:resource="http://purl.org/dc/dcmitype/StillImage" />
      </cc:Work>
    </rdf:RDF>
  </metadata>
  <sodipodi:namedview
     pagecolor="#ffffff"
     bordercolor="#666666"
     borderopacity="1"
     objecttolerance="10"
     gridtolerance="10"
     guidetolerance="10"
     inkscape:pageopacity="0"
     inkscape:pageshadow="2"
     inkscape:window-width="1920"
     inkscape:window-height="1008"
     id="namedview32"
     showgrid="false"
     inkscape:zoom="16.895833"
     inkscape:cx="24"
     inkscape:cy="24"
     inkscape:window-x="0"
     inkscape:window-y="0"
     inkscape:window-maximized="1"
     inkscape:current-layer="svg30"
     inkscape:pagecheckerboard="0"
     inkscape:showpageshadow="2"
     inkscape:deskcolor="#d1d1d1" />
  <defs
     id="defs20">
    <linearGradient
       inkscape:collect="always"
       id="linearGradient2521">
      <stop
         style="stop-color:#f2d596;stop-opacity:1;"
         offset="0"
         id="stop2517" />
      <stop
         style="stop-color:#ffffff;stop-opacity:1;"
         offset="1"
         id="stop2519" />
    </linearGradient>
    <linearGradient
       id="linearGradient4084">
      <stop
         style="stop-color:#ef9958;stop-opacity:1;"
         offset="0"
         id="stop4080" />
      <stop
         style="stop-color:#eeda84;stop-opacity:1;"
         offset="1"
         id="stop4082" />
    </linearGradient>
    <linearGradient
       id="linearGradient4533">
      <stop
         style="stop-color:#000000;stop-opacity:1"
         offset="0"
         id="stop2" />
      <stop
         style="stop-color:#000000;stop-opacity:0"
         offset="1"
         id="stop4" />
    </linearGradient>
    <linearGradient
       id="linearGradient4507">
      <stop
         style="stop-color:#4762c9;stop-opacity:1"
         offset="0"
         id="stop12" />
      <stop
         style="stop-color:#8698da;stop-opacity:1"
         offset="1"
         id="stop14" />
    </linearGradient>
    <linearGradient
       xlink:href="#linearGradient4507"
       id="linearGradient4509"
       x1="36.853"
       y1="37.567"
       x2="27.831"
       y2="3.893"
       gradientUnits="userSpaceOnUse"
       gradientTransform="translate(-15.543305,5.327629)" />
    <linearGradient
       xlink:href="#linearGradient4533"
       id="linearGradient4535"
       x1="18.519"
       y1="15.562"
       x2="35.158"
       y2="32.202"
       gradientUnits="userSpaceOnUse"
       gradientTransform="translate(-35.206691,-10.474111)" />
    <linearGradient
       inkscape:collect="always"
       xlink:href="#linearGradient4084"
       id="linearGradient3192"
       x1="34.250381"
       y1="45.622643"
       x2="10.228386"
       y2="2.8234024"
       gradientUnits="userSpaceOnUse" />
    <linearGradient
       inkscape:collect="always"
       xlink:href="#linearGradient4533"
       id="linearGradient1553"
       x1="21.841795"
       y1="16.103697"
       x2="40.552734"
       y2="35.174004"
       gradientUnits="userSpaceOnUse" />
    <linearGradient
       inkscape:collect="always"
       xlink:href="#linearGradient2521"
       id="linearGradient2523"
       x1="34.569218"
       y1="40.990082"
       x2="23.565462"
       y2="14"
       gradientUnits="userSpaceOnUse" />
  </defs>
  <circle
     style="fill:url(#linearGradient3192);stroke-width:1.92876;fill-opacity:1"
     id="path1121"
     cx="24"
     cy="24"
     r="20" />
  <path
     id="path1121-6"
     style="fill:#000000;stroke-width:1.92876;opacity:0.3;fill-opacity:1"
     d="M 44.000002,23.25 A 20,20 0 0 1 24.01758,43 20,20 0 0 1 4.0527362,23.5 20,20 0 0 0 4.0175802,24 20,20 0 0 0 24.01758,44 a 20,20 0 0 0 20,-20 A 20,20 0 0 0 44,23.25 Z" />
  <path
     id="path1247"
     style="opacity:0.2;fill:url(#linearGradient1553);fill-opacity:1"
     d="M 33.009766,15.658203 18.110182,19.847159 11.140625,30.683594 24.425781,43.96875 C 34.336272,43.747784 42.589499,36.300601 43.824219,26.464844 L 33.03125,15.671875 c -0.0059,-0.006 -0.02148,-0.01367 -0.02148,-0.01367 z"
     sodipodi:nodetypes="ccccccc" />
  <path
     d="m 20.275364,14.001432 c -1.856986,0.322771 -3.634792,0.88785 -5.292969,1.65625 -0.01435,0.0063 -0.02504,0.01577 -0.0332,0.0293 -3.37068,5.082043 -4.294771,10.039876 -3.841797,14.935547 0.0021,0.02395 0.01475,0.04599 0.0332,0.06055 2.223878,1.648188 4.377983,2.649277 6.492187,3.3125 0.03384,0.01042 0.07027,-0.0012 0.0918,-0.0293 0.500115,-0.689239 0.945889,-1.116598 1.328125,-1.880859 0.02256,-0.04476 0.0012,-0.09753 -0.04492,-0.115235 -0.707125,-0.270706 -1.37965,-0.599796 -2.027343,-0.974609 -0.05123,-0.0302 -0.05687,-0.10522 -0.0098,-0.140625 0.1363,-0.103071 0.274152,-0.210077 0.404298,-0.31836 0.02355,-0.01977 0.0563,-0.02421 0.08398,-0.01172 4.255064,1.960582 8.861548,1.960582 13.066407,0 0.02768,-0.01352 0.05941,-0.01009 0.08398,0.0098 0.130183,0.108283 0.266973,0.217242 0.404297,0.320313 0.04713,0.0354 0.04343,0.110432 -0.0078,0.140625 -0.647693,0.382094 -1.321143,0.704937 -2.029297,0.974609 -0.0461,0.0177 -0.06553,0.07048 -0.04297,0.115235 0.390439,0.76319 0.835284,1.18963 1.326172,1.878906 0.02051,0.02916 0.05796,0.04168 0.0918,0.03125 2.124458,-0.663223 4.278075,-1.664312 6.501954,-3.3125 0.01948,-0.01456 0.03311,-0.0366 0.03516,-0.06055 0.542118,-5.659933 -0.909571,-10.57516 -3.845703,-14.933594 -0.0072,-0.01456 -0.01884,-0.02501 -0.0332,-0.03125 -1.657152,-0.767364 -3.433005,-1.332444 -5.291016,-1.65625 -0.03384,-0.0063 -0.06851,0.0079 -0.08594,0.03906 -0.228542,0.410222 -0.480927,0.745375 -0.658203,1.166015 -1.998411,-0.301935 -3.987879,-0.301935 -5.945312,0 -0.177313,-0.429989 -0.4384,-0.755793 -0.667969,-1.166015 -0.01743,-0.03019 -0.0521,-0.04427 -0.08594,-0.03906 z m -0.777344,8.998047 c 1.403209,0 2.52389,1.131842 2.501953,2.5 0,1.378011 -1.109712,2.5 -2.501953,2.5 -1.370382,0 -2.498047,-1.121989 -2.498047,-2.5 0,-1.378011 1.105767,-2.5 2.498047,-2.5 z m 9.001953,0 c 1.403248,0 2.521899,1.131842 2.5,2.5 1e-6,1.378011 -1.096752,2.5 -2.5,2.5 -1.370343,0 -2.5,-1.121989 -2.5,-2.5 0,-1.378011 1.10772,-2.5 2.5,-2.5 z"
     style="fill:url(#linearGradient2523);fill-opacity:1"
     id="path304" />
</svg>
