<?xml version="1.0" encoding="UTF-8" standalone="no"?>
<svg
   width="48"
   height="48"
   version="1.1"
   viewBox="0 0 48 48"
   id="svg16"
   sodipodi:docname="haruna.svg"
   inkscape:version="1.4.2 (ebf0e940d0, 2025-05-08)"
   xmlns:inkscape="http://www.inkscape.org/namespaces/inkscape"
   xmlns:sodipodi="http://sodipodi.sourceforge.net/DTD/sodipodi-0.dtd"
   xmlns:xlink="http://www.w3.org/1999/xlink"
   xmlns="http://www.w3.org/2000/svg"
   xmlns:svg="http://www.w3.org/2000/svg">
  <sodipodi:namedview
     id="namedview16"
     pagecolor="#ffffff"
     bordercolor="#000000"
     borderopacity="0.25"
     inkscape:showpageshadow="2"
     inkscape:pageopacity="0.0"
     inkscape:pagecheckerboard="0"
     inkscape:deskcolor="#d1d1d1"
     inkscape:zoom="16.583333"
     inkscape:cx="23.969849"
     inkscape:cy="24"
     inkscape:window-width="1920"
     inkscape:window-height="1010"
     inkscape:window-x="0"
     inkscape:window-y="0"
     inkscape:window-maximized="1"
     inkscape:current-layer="svg16" />
  <defs
     id="defs11">
    <linearGradient
       id="linearGradient13"
       x1="1.0583"
       x2="11.642"
       y1="285.07999"
       y2="296.22"
       gradientTransform="matrix(3.7795038,0,0,3.5905286,1.5208436e-4,-735.28556)"
       gradientUnits="userSpaceOnUse">
      <stop
         stop-color="#535a61"
         offset="0"
         id="stop12"
         style="stop-color:#5a5a5a;stop-opacity:1;" />
      <stop
         stop-color="#333c45"
         offset="1"
         id="stop13"
         style="stop-color:#2a2a2a;stop-opacity:1;" />
    </linearGradient>
    <linearGradient
       inkscape:collect="always"
       xlink:href="#linearGradient13"
       id="linearGradient15"
       x1="4"
       y1="288.306"
       x2="43.999771"
       y2="328.3074"
       gradientUnits="userSpaceOnUse"
       gradientTransform="translate(0,-0.00599976)" />
  </defs>
  <g
     transform="translate(0,-284.3)"
     id="g16">
    <rect
       x="4"
       y="288.29999"
       width="40"
       height="40"
       ry="1.9999999"
       fill="url(#b)"
       id="rect11"
       style="fill:url(#linearGradient15);stroke-width:3.7795" />
    <path
       id="path1"
       style="opacity:0.8;fill:#ffffff;stroke-width:1.5;stroke-linecap:round"
       d="m 10,294.3 v 28 h 9 v -10 h 10 v 10 h 9 v -28 h -9 v 10 H 19 v -10 z m 3,4 h 3 v 3 h -3 z m 19,0 h 3 v 3 h -3 z m -19,8 h 3 v 3 h -3 z m 19,0 h 3 v 3 h -3 z m -19,8 h 3 v 3 h -3 z m 19,0 h 3 v 3 h -3 z" />
    <path
       d="m 4,325.3 v 0.99998 c 0,1.108 0.8920007,2 2,2 h 35.999773 c 1.108,0 2,-0.892 2,-2 V 325.3 c 0,1.108 -0.892,2 -2,2 H 6 c -1.1079993,0 -2,-0.892 -2,-2 z"
       opacity="0.4"
       id="path11"
       style="stroke-width:3.7795" />
  </g>
</svg>
