<?xml version="1.0" encoding="UTF-8" standalone="no"?>
<svg
   width="48"
   height="48"
   version="1.1"
   id="svg67"
   sodipodi:docname="hwloc.svg"
   inkscape:version="1.2.2 (b0a8486541, 2022-12-01)"
   xmlns:inkscape="http://www.inkscape.org/namespaces/inkscape"
   xmlns:sodipodi="http://sodipodi.sourceforge.net/DTD/sodipodi-0.dtd"
   xmlns:xlink="http://www.w3.org/1999/xlink"
   xmlns="http://www.w3.org/2000/svg"
   xmlns:svg="http://www.w3.org/2000/svg">
  <sodipodi:namedview
     id="namedview69"
     pagecolor="#ffffff"
     bordercolor="#000000"
     borderopacity="0.25"
     inkscape:showpageshadow="2"
     inkscape:pageopacity="0.0"
     inkscape:pagecheckerboard="0"
     inkscape:deskcolor="#d1d1d1"
     showgrid="false"
     inkscape:zoom="16.895833"
     inkscape:cx="24"
     inkscape:cy="24"
     inkscape:window-width="1920"
     inkscape:window-height="1008"
     inkscape:window-x="0"
     inkscape:window-y="0"
     inkscape:window-maximized="1"
     inkscape:current-layer="g61" />
  <defs
     id="defs29">
    <linearGradient
       id="a"
       y1="44"
       y2="4"
       gradientUnits="userSpaceOnUse"
       x2="0"
       gradientTransform="translate(0 1004.36)">
      <stop
         stop-color="#63984b"
         id="stop2" />
      <stop
         offset="1"
         stop-color="#8fc278"
         id="stop4" />
    </linearGradient>
    <linearGradient
       id="b"
       y1="11"
       x1="17"
       y2="41"
       gradientUnits="userSpaceOnUse"
       x2="44"
       gradientTransform="translate(0 1004.36)">
      <stop
         id="stop7" />
      <stop
         offset="1"
         stop-opacity="0"
         id="stop9" />
    </linearGradient>
    <linearGradient
       id="c"
       y1="1003.36"
       y2="1027.36"
       x1="-93"
       x2="-70"
       gradientUnits="userSpaceOnUse">
      <stop
         stop-color="#292c2f"
         id="stop12" />
      <stop
         offset="1"
         stop-opacity="0"
         id="stop14" />
    </linearGradient>
    <linearGradient
       id="d"
       x1="-50"
       x2="-22.15"
       gradientUnits="userSpaceOnUse">
      <stop
         stop-color="#7cbaf8"
         id="stop17" />
      <stop
         offset="1"
         stop-color="#f4fcff"
         id="stop19" />
    </linearGradient>
    <linearGradient
       xlink:href="#d"
       id="e"
       y1="1040.36"
       y2="1014.36"
       gradientUnits="userSpaceOnUse"
       x2="0"
       gradientTransform="translate(-0.148)" />
    <linearGradient
       id="f"
       y1="1043.36"
       y2="1012.36"
       x2="0"
       gradientUnits="userSpaceOnUse"
       gradientTransform="translate(60)">
      <stop
         stop-color="#197cf1"
         id="stop23" />
      <stop
         offset="1"
         stop-color="#20bcfa"
         id="stop25" />
    </linearGradient>
    <linearGradient
       xlink:href="#d"
       id="g"
       y1="37"
       y2="10"
       x2="0"
       gradientUnits="userSpaceOnUse"
       gradientTransform="translate(60 1004.36)" />
    <linearGradient
       inkscape:collect="always"
       xlink:href="#d"
       id="linearGradient480"
       gradientUnits="userSpaceOnUse"
       gradientTransform="translate(-0.148)"
       y1="1040.36"
       x2="0"
       y2="1014.36" />
    <linearGradient
       inkscape:collect="always"
       xlink:href="#d"
       id="linearGradient482"
       gradientUnits="userSpaceOnUse"
       gradientTransform="translate(-0.148)"
       y1="1040.36"
       x2="0"
       y2="1014.36" />
    <linearGradient
       inkscape:collect="always"
       xlink:href="#d"
       id="linearGradient1093"
       x1="-19.15"
       y1="1042.86"
       x2="-19.15"
       y2="1013.5431"
       gradientUnits="userSpaceOnUse" />
  </defs>
  <g
     transform="translate(0-1004.36)"
     id="g65">
    <g
       fill-rule="evenodd"
       id="g35">
      <path
         fill="#dce269"
         d="m4 1008.36v9l3 2-3 2v27h40v-40z"
         id="path31" />
      <path
         fill="url(#a)"
         d="m4 1008.36v8l3 2-3 2v27h40v-39z"
         id="path33" />
    </g>
    <g
       color="#000000"
       id="g41">
      <path
         d="m9 1044.36v1h1v-1zm1 1v1h1v-1zm1 0h1v-1h-1zm1 0v1h1v-1zm1 0h1v-1h-1zm1 0v1h1v-1zm1 0h1v-1h-1zm1 0v1h1v-1zm1 0h1v-1h-1zm1 0v1h1v-1zm1 0h1v-1h-1zm1 0v1h1v-1zm1 0h1v-1h-1zm1 0v1h1v-1zm1 0h1v-1h-1zm1 0v1h1v-1z"
         id="path37" />
      <path
         d="m35 1044.36v1h1v-1zm1 1v1h1v-1zm1 0h1v-1h-1zm1 0v1h1v-1zm1 0h1v-1h-1zm-4 0h-1v1h1z"
         id="path39" />
    </g>
    <path
       fill="#e6ea97"
       fill-rule="evenodd"
       d="m43 1044.36l-2 2h2z"
       id="path43" />
    <path
       color="#000000"
       d="m42 1013.36v1h1v-1zm0 1h-1v1h1zm0 1v1h1v-1zm0 1h-1v1h1zm0 1v1h1v-1zm0 1h-1v1h1zm0 1v1h1v-1zm0 1h-1v1h1zm0 1v1h1v-1zm0 1h-1v1h1zm0 1v1h1v-1zm0 1h-1v1h1zm0 1v1h1v-1zm0 1h-1v1h1zm0 1v1h1v-1zm0 1h-1v1h1z"
       id="path45" />
    <g
       fill-rule="evenodd"
       id="g61">
      <path
         opacity=".2"
         fill="url(#b)"
         d="m40 1012.36v31h-32l4.584 5h31.416v-32z"
         id="path47" />
      <rect
         width="32"
         x="8"
         y="1012.36"
         fill="url(#f)"
         height="31"
         id="rect49" />
      <rect
         width="32"
         x="8"
         y="1042.36"
         fill="#1c5593"
         height="1"
         id="rect51" />
      <path
         opacity="0.2"
         fill="url(#c)"
         d="m -81,1007.36 h -14 l 4,4 v 11 h -4 l 5,5 h 24 v -25 l -3.000002,-3.00001 -10,2.00001 -1.999998,-2 z"
         transform="translate(106,16)"
         id="path53"
         sodipodi:nodetypes="cccccccccccc" />
      <g
         fill="url(#e)"
         transform="translate(59.15)"
         id="g59"
         style="fill:url(#e)">
        <path
           d="m -48.15,1015.36 v 8 h 14 v -8 z"
           id="path55"
           sodipodi:nodetypes="ccccc"
           style="fill:url(#linearGradient480)" />
        <path
           d="m -48.15,1025.36 v 13 h 14 v -13 z"
           id="path57"
           sodipodi:nodetypes="ccccc"
           style="fill:url(#linearGradient482)" />
        <rect
           style="opacity:1;fill:url(#linearGradient1093);fill-opacity:1"
           id="rect478"
           width="10"
           height="23"
           x="-32.150002"
           y="1015.36" />
      </g>
    </g>
  </g>
</svg>
