<?xml version="1.0" encoding="UTF-8" standalone="no"?>
<!-- Created with Inkscape (http://www.inkscape.org/) -->

<svg
   width="48"
   height="48"
   viewBox="0 0 48 48"
   version="1.1"
   id="svg1"
   inkscape:version="1.4.2 (ebf0e940d0, 2025-05-08)"
   sodipodi:docname="kakaotalk.svg"
   xmlns:inkscape="http://www.inkscape.org/namespaces/inkscape"
   xmlns:sodipodi="http://sodipodi.sourceforge.net/DTD/sodipodi-0.dtd"
   xmlns:xlink="http://www.w3.org/1999/xlink"
   xmlns="http://www.w3.org/2000/svg"
   xmlns:svg="http://www.w3.org/2000/svg">
  <sodipodi:namedview
     id="namedview1"
     pagecolor="#ffffff"
     bordercolor="#000000"
     borderopacity="0.25"
     inkscape:showpageshadow="2"
     inkscape:pageopacity="0.0"
     inkscape:pagecheckerboard="0"
     inkscape:deskcolor="#d1d1d1"
     inkscape:document-units="px"
     inkscape:zoom="16.583333"
     inkscape:cx="23.969849"
     inkscape:cy="24"
     inkscape:window-width="1920"
     inkscape:window-height="1010"
     inkscape:window-x="0"
     inkscape:window-y="0"
     inkscape:window-maximized="1"
     inkscape:current-layer="svg1" />
  <defs
     id="defs1">
    <linearGradient
       id="linearGradient1027"
       inkscape:collect="always">
      <stop
         style="stop-color:#000000;stop-opacity:1;"
         offset="0"
         id="stop1027" />
      <stop
         style="stop-color:#000000;stop-opacity:0;"
         offset="1"
         id="stop1028" />
    </linearGradient>
    <linearGradient
       id="linearGradient1023"
       inkscape:collect="always">
      <stop
         style="stop-color:#2e1f10;stop-opacity:1;"
         offset="0"
         id="stop1023" />
      <stop
         style="stop-color:#422815;stop-opacity:1;"
         offset="1"
         id="stop1024" />
    </linearGradient>
    <linearGradient
       id="linearGradient1"
       inkscape:collect="always">
      <stop
         style="stop-color:#f39c1f;stop-opacity:1;"
         offset="0"
         id="stop1" />
      <stop
         style="stop-color:#fdbc4b;stop-opacity:1;"
         offset="1"
         id="stop2" />
    </linearGradient>
    <linearGradient
       inkscape:collect="always"
       xlink:href="#linearGradient1"
       id="linearGradient2"
       x1="44"
       y1="44"
       x2="4"
       y2="4"
       gradientUnits="userSpaceOnUse" />
    <linearGradient
       inkscape:collect="always"
       xlink:href="#linearGradient1023"
       id="linearGradient1024"
       x1="10"
       y1="38"
       x2="10"
       y2="10"
       gradientUnits="userSpaceOnUse" />
    <linearGradient
       inkscape:collect="always"
       xlink:href="#linearGradient1027"
       id="linearGradient1028"
       x1="12"
       y1="14.242188"
       x2="42"
       y2="44"
       gradientUnits="userSpaceOnUse" />
  </defs>
  <rect
     style="fill:url(#linearGradient2);fill-opacity:1"
     id="rect1"
     width="40"
     height="40"
     x="4"
     y="4"
     ry="2" />
  <path
     id="path1"
     style="opacity:0.2;fill:#000000;fill-opacity:1"
     d="m 4,41 v 1 c 0,1.108 0.892,2 2,2 h 36 c 1.108,0 2,-0.892 2,-2 v -1 c 0,1.108 -0.892,2 -2,2 H 6 C 4.892,43 4,42.108 4,41 Z" />
  <path
     id="path2"
     style="opacity:0.2;fill:url(#linearGradient1028)"
     d="M 34.681641,14.242188 12,38 l 6,6 h 24 c 1.108,0 2,-0.892 2,-2 V 24 Z" />
  <path
     id="path3"
     style="fill:url(#linearGradient1024);stroke-width:0.960769"
     d="m 24,10 a 14,12 0 0 0 -14,12 14,12 0 0 0 4.417969,8.748047 L 12,38 19.125,33.25 a 14,12 0 0 0 0.002,0 A 14,12 0 0 0 24,34 14,12 0 0 0 38,22 14,12 0 0 0 24,10 Z" />
</svg>
