<?xml version="1.0" encoding="UTF-8" standalone="no"?>
<!-- Created with Inkscape (http://www.inkscape.org/) -->

<svg
   width="48"
   height="48"
   viewBox="0 0 48 48"
   version="1.1"
   id="svg8"
   inkscape:version="1.4.2 (ebf0e940d0, 2025-05-08)"
   sodipodi:docname="kmines.svg"
   xmlns:inkscape="http://www.inkscape.org/namespaces/inkscape"
   xmlns:sodipodi="http://sodipodi.sourceforge.net/DTD/sodipodi-0.dtd"
   xmlns:xlink="http://www.w3.org/1999/xlink"
   xmlns="http://www.w3.org/2000/svg"
   xmlns:svg="http://www.w3.org/2000/svg"
   xmlns:rdf="http://www.w3.org/1999/02/22-rdf-syntax-ns#"
   xmlns:cc="http://creativecommons.org/ns#"
   xmlns:dc="http://purl.org/dc/elements/1.1/">
  <defs
     id="defs2">
    <linearGradient
       inkscape:collect="always"
       id="linearGradient4607">
      <stop
         style="stop-color:#000000;stop-opacity:1;"
         offset="0"
         id="stop4603" />
      <stop
         style="stop-color:#000000;stop-opacity:0;"
         offset="1"
         id="stop4605" />
    </linearGradient>
    <linearGradient
       inkscape:collect="always"
       id="linearGradient4502">
      <stop
         style="stop-color:#424649;stop-opacity:1;"
         offset="0"
         id="stop4498" />
      <stop
         style="stop-color:#2a2c2f;stop-opacity:1"
         offset="1"
         id="stop4500" />
    </linearGradient>
    <linearGradient
       inkscape:collect="always"
       xlink:href="#linearGradient4502"
       id="linearGradient4504"
       x1="23"
       y1="4"
       x2="23"
       y2="44"
       gradientUnits="userSpaceOnUse"
       gradientTransform="translate(-2.2318241e-7,284.30001)" />
    <radialGradient
       inkscape:collect="always"
       xlink:href="#linearGradient4607"
       id="radialGradient4609"
       cx="24.5"
       cy="24"
       fx="24.5"
       fy="24"
       r="11.5"
       gradientTransform="matrix(1.1739131,0,0,1.2173913,-4.2608716,279.08264)"
       gradientUnits="userSpaceOnUse" />
  </defs>
  <sodipodi:namedview
     id="base"
     pagecolor="#ffffff"
     bordercolor="#666666"
     borderopacity="1.0"
     inkscape:pageopacity="0.0"
     inkscape:pageshadow="2"
     inkscape:zoom="16.583333"
     inkscape:cx="23.969849"
     inkscape:cy="24"
     inkscape:document-units="px"
     inkscape:current-layer="layer1"
     showgrid="false"
     units="px"
     inkscape:window-width="1920"
     inkscape:window-height="1010"
     inkscape:window-x="0"
     inkscape:window-y="0"
     inkscape:window-maximized="1"
     inkscape:showpageshadow="2"
     inkscape:pagecheckerboard="0"
     inkscape:deskcolor="#d1d1d1"
     showborder="true">
    <inkscape:grid
       type="xygrid"
       id="grid4513"
       originx="0"
       originy="0"
       spacingy="1"
       spacingx="1"
       units="px" />
  </sodipodi:namedview>
  <metadata
     id="metadata5">
    <rdf:RDF>
      <cc:Work
         rdf:about="">
        <dc:format>image/svg+xml</dc:format>
        <dc:type
           rdf:resource="http://purl.org/dc/dcmitype/StillImage" />
      </cc:Work>
    </rdf:RDF>
  </metadata>
  <g
     inkscape:label="Layer 1"
     inkscape:groupmode="layer"
     id="layer1"
     transform="translate(0,-284.29999)">
    <path
       style="opacity:1;vector-effect:none;fill:url(#linearGradient4504);fill-opacity:1;stroke:none;stroke-width:0.854717;stroke-linecap:round;stroke-linejoin:round;stroke-miterlimit:4;stroke-dasharray:none;stroke-dashoffset:0;stroke-opacity:1"
       d="m 23,288.29999 v 6.03712 a 14,14 0 0 0 -8.154297,3.39454 l -4.28125,-4.28126 -1.4140623,1.41407 4.2753903,4.2754 a 14,14 0 0 0 -3.375,8.16016 H 4 v 1.99997 h 6.037109 a 14,14 0 0 0 3.394532,8.15429 l -4.2812503,4.28126 1.4140623,1.41408 4.275391,-4.27541 A 14,14 0 0 0 23,322.24922 v 6.0508 h 2 v -6.03712 a 14,14 0 0 0 8.154298,-3.39454 l 4.281248,4.28126 1.414065,-1.41408 -4.27539,-4.2754 a 14,14 0 0 0 3.374997,-8.16015 H 44 v -1.99997 h -6.037108 a 14,14 0 0 0 -3.394533,-8.1543 l 4.281252,-4.28126 -1.414065,-1.41407 -4.27539,4.2754 A 14,14 0 0 0 25,294.35079 v -6.0508 z"
       id="rect4485" />
    <path
       style="opacity:0.2;vector-effect:none;fill:#000000;fill-opacity:1;stroke:none;stroke-width:0.854717;stroke-linecap:round;stroke-linejoin:round;stroke-miterlimit:4;stroke-dasharray:none;stroke-dashoffset:0;stroke-opacity:1"
       d="m 9.6503909,294.36447 -0.5000002,0.49999 3.8378903,3.83789 a 14,14 0 0 1 0.4375,-0.56251 z m 28.6992191,0 -3.781251,3.78123 a 14,14 0 0 1 0.447265,0.55275 l 3.833987,-3.83399 z M 4,308.3 v 0.99999 h 6.037109 a 14,14 0 0 0 2.947266,7.60158 l 0.447266,-0.44727 A 14,14 0 0 1 10.037109,308.3 Z m 33.949218,0 a 14,14 0 0 1 -3.374997,8.16015 l 0.437499,0.43752 a 14,14 0 0 0 2.937498,-7.59768 H 44 V 308.3 Z m -4.79492,9.56837 A 14,14 0 0 1 25,321.26288 v 1.00002 a 14,14 0 0 0 8.154298,-3.39454 l 4.281248,4.28126 1.414065,-1.41408 -0.500001,-0.49999 -0.914064,0.91408 z m -18.314454,0.008 -4.275391,4.2754 -0.9140621,-0.91408 -0.5000002,0.49999 1.4140623,1.41408 4.275391,-4.2754 A 14,14 0 0 0 23,322.25088 v -0.99999 a 14,14 0 0 1 -8.160156,-3.37666 z M 23,327.30165 v 1.00003 h 2 v -1.00003 z"
       id="path4506" />
    <path
       style="opacity:0.7;vector-effect:none;fill:url(#radialGradient4609);fill-opacity:1;stroke:none;stroke-width:1.16651;stroke-linecap:round;stroke-linejoin:round;stroke-miterlimit:4;stroke-dasharray:none;stroke-dashoffset:0;stroke-opacity:1"
       d="m 17,297.29999 a 0.99999998,0.99999998 0 0 0 -1,1.00003 0.99999998,0.99999998 0 0 0 1,0.99998 0.99999998,0.99999998 0 0 0 1,-0.99998 0.99999998,0.99999998 0 0 0 -1,-1.00003 z m 7,0 a 0.99999998,0.99999998 0 0 0 -1,1.00003 0.99999998,0.99999998 0 0 0 1,0.99998 0.99999998,0.99999998 0 0 0 1,-0.99998 0.99999998,0.99999998 0 0 0 -1,-1.00003 z m 7.000001,0 A 0.99999998,0.99999998 0 0 0 30.000002,298.30002 0.99999998,0.99999998 0 0 0 31.000001,299.3 0.99999998,0.99999998 0 0 0 32,298.30002 0.99999998,0.99999998 0 0 0 31.000001,297.29999 Z M 14,302.3 a 0.99999998,0.99999998 0 0 0 -1,0.99999 0.99999998,0.99999998 0 0 0 1,1.00003 0.99999998,0.99999998 0 0 0 1,-1.00003 A 0.99999998,0.99999998 0 0 0 14,302.3 Z m 7,0 a 0.99999998,0.99999998 0 0 0 -1,0.99999 0.99999998,0.99999998 0 0 0 1,1.00003 0.99999998,0.99999998 0 0 0 1,-1.00003 A 0.99999998,0.99999998 0 0 0 21,302.3 Z m 7.000001,0 a 0.99999998,0.99999998 0 0 0 -0.999999,0.99999 0.99999998,0.99999998 0 0 0 0.999999,1.00003 A 0.99999998,0.99999998 0 0 0 29,303.29999 0.99999998,0.99999998 0 0 0 28.000001,302.3 Z M 35,302.3 A 0.99999998,0.99999998 0 0 0 34.000001,303.29999 0.99999998,0.99999998 0 0 0 35,304.30002 0.99999998,0.99999998 0 0 0 36.000002,303.29999 0.99999998,0.99999998 0 0 0 35,302.3 Z m -18,5.00002 a 0.99999998,0.99999998 0 0 0 -1,0.99998 0.99999998,0.99999998 0 0 0 1,0.99999 0.99999998,0.99999998 0 0 0 1,-0.99999 0.99999998,0.99999998 0 0 0 -1,-0.99998 z m 7,0 a 0.99999998,0.99999998 0 0 0 -1,0.99998 0.99999998,0.99999998 0 0 0 1,0.99999 0.99999998,0.99999998 0 0 0 1,-0.99999 0.99999998,0.99999998 0 0 0 -1,-0.99998 z m 7.000001,0 A 0.99999998,0.99999998 0 0 0 30.000002,308.3 0.99999998,0.99999998 0 0 0 31.000001,309.29999 0.99999998,0.99999998 0 0 0 32,308.3 0.99999998,0.99999998 0 0 0 31.000001,307.30002 Z M 14,312.29999 a 0.99999998,0.99999998 0 0 0 -1,1.00003 0.99999998,0.99999998 0 0 0 1,0.99998 0.99999998,0.99999998 0 0 0 1,-0.99998 0.99999998,0.99999998 0 0 0 -1,-1.00003 z m 7,0 a 0.99999998,0.99999998 0 0 0 -1,1.00003 0.99999998,0.99999998 0 0 0 1,0.99998 0.99999998,0.99999998 0 0 0 1,-0.99998 0.99999998,0.99999998 0 0 0 -1,-1.00003 z m 7.000001,0 A 0.99999998,0.99999998 0 0 0 27.000002,313.30002 0.99999998,0.99999998 0 0 0 28.000001,314.3 0.99999998,0.99999998 0 0 0 29,313.30002 0.99999998,0.99999998 0 0 0 28.000001,312.29999 Z m 6.999999,0 A 0.99999998,0.99999998 0 0 0 34.000001,313.30002 0.99999998,0.99999998 0 0 0 35,314.3 0.99999998,0.99999998 0 0 0 36.000002,313.30002 0.99999998,0.99999998 0 0 0 35,312.29999 Z M 17,317.3 a 0.99999998,0.99999998 0 0 0 -1,0.99999 0.99999998,0.99999998 0 0 0 1,1.00003 0.99999998,0.99999998 0 0 0 1,-1.00003 A 0.99999998,0.99999998 0 0 0 17,317.3 Z m 7,0 a 0.99999998,0.99999998 0 0 0 -1,0.99999 0.99999998,0.99999998 0 0 0 1,1.00003 0.99999998,0.99999998 0 0 0 1,-1.00003 A 0.99999998,0.99999998 0 0 0 24,317.3 Z m 7.000001,0 a 0.99999998,0.99999998 0 0 0 -0.999999,0.99999 0.99999998,0.99999998 0 0 0 0.999999,1.00003 A 0.99999998,0.99999998 0 0 0 32,318.29999 0.99999998,0.99999998 0 0 0 31.000001,317.3 Z"
       id="path4511" />
  </g>
</svg>
