<?xml version="1.0" encoding="UTF-8" standalone="no"?>
<!-- Created with Inkscape (http://www.inkscape.org/) -->

<svg
   width="48"
   height="48"
   viewBox="0 0 48 48"
   version="1.1"
   id="svg5"
   inkscape:version="1.4 (e7c3feb100, 2024-10-09)"
   sodipodi:docname="microsoft-edge.svg"
   xmlns:inkscape="http://www.inkscape.org/namespaces/inkscape"
   xmlns:sodipodi="http://sodipodi.sourceforge.net/DTD/sodipodi-0.dtd"
   xmlns:xlink="http://www.w3.org/1999/xlink"
   xmlns="http://www.w3.org/2000/svg"
   xmlns:svg="http://www.w3.org/2000/svg">
  <sodipodi:namedview
     id="namedview7"
     pagecolor="#ffffff"
     bordercolor="#666666"
     borderopacity="1.0"
     inkscape:pageshadow="2"
     inkscape:pageopacity="0.0"
     inkscape:pagecheckerboard="0"
     inkscape:document-units="px"
     showgrid="false"
     units="px"
     height="48px"
     inkscape:zoom="16.520833"
     inkscape:cx="24"
     inkscape:cy="24"
     inkscape:window-width="1920"
     inkscape:window-height="1008"
     inkscape:window-x="0"
     inkscape:window-y="0"
     inkscape:window-maximized="1"
     inkscape:current-layer="svg5"
     inkscape:showpageshadow="2"
     inkscape:deskcolor="#d1d1d1" />
  <defs
     id="defs2">
    <linearGradient
       inkscape:collect="always"
       id="linearGradient13779">
      <stop
         style="stop-color:#000000;stop-opacity:1;"
         offset="0"
         id="stop13775" />
      <stop
         style="stop-color:#000000;stop-opacity:0;"
         offset="1"
         id="stop13777" />
    </linearGradient>
    <linearGradient
       inkscape:collect="always"
       id="linearGradient12344">
      <stop
         style="stop-color:#116393;stop-opacity:1;"
         offset="0"
         id="stop12340" />
      <stop
         style="stop-color:#1682c1;stop-opacity:1"
         offset="1"
         id="stop12342" />
    </linearGradient>
    <linearGradient
       inkscape:collect="always"
       id="linearGradient10516">
      <stop
         style="stop-color:#188fc8;stop-opacity:1"
         offset="0"
         id="stop10512" />
      <stop
         style="stop-color:#41c3e9;stop-opacity:1"
         offset="1"
         id="stop10514" />
    </linearGradient>
    <linearGradient
       inkscape:collect="always"
       id="linearGradient9708">
      <stop
         style="stop-color:#3be588;stop-opacity:1"
         offset="0"
         id="stop9704" />
      <stop
         style="stop-color:#39b2e4;stop-opacity:1"
         offset="1"
         id="stop9706" />
    </linearGradient>
    <linearGradient
       inkscape:collect="always"
       xlink:href="#linearGradient9708"
       id="linearGradient9710"
       x1="43.343521"
       y1="33.005779"
       x2="5.3279281"
       y2="5.7089119"
       gradientUnits="userSpaceOnUse"
       gradientTransform="translate(2e-6)" />
    <linearGradient
       inkscape:collect="always"
       xlink:href="#linearGradient10516"
       id="linearGradient10518"
       x1="10.758186"
       y1="31.086422"
       x2="21.440447"
       y2="15.766142"
       gradientUnits="userSpaceOnUse"
       gradientTransform="translate(2e-6)" />
    <linearGradient
       inkscape:collect="always"
       xlink:href="#linearGradient12344"
       id="linearGradient12346"
       x1="11.500359"
       y1="30.37657"
       x2="37.075485"
       y2="38.473064"
       gradientUnits="userSpaceOnUse"
       gradientTransform="translate(2e-6)" />
    <linearGradient
       inkscape:collect="always"
       xlink:href="#linearGradient13779"
       id="linearGradient13781"
       x1="5.8177958"
       y1="17.500849"
       x2="13.325488"
       y2="24.986536"
       gradientUnits="userSpaceOnUse"
       gradientTransform="translate(2e-6)" />
    <linearGradient
       inkscape:collect="always"
       xlink:href="#linearGradient13779"
       id="linearGradient16523"
       x1="12.679887"
       y1="31.411888"
       x2="19.472919"
       y2="37.440197"
       gradientUnits="userSpaceOnUse"
       gradientTransform="translate(2e-6)" />
    <linearGradient
       inkscape:collect="always"
       xlink:href="#linearGradient13779"
       id="linearGradient17995"
       x1="25.694397"
       y1="21.964504"
       x2="31.823616"
       y2="28.234488"
       gradientUnits="userSpaceOnUse"
       gradientTransform="translate(2e-6)" />
  </defs>
  <path
     id="path868-1"
     style="opacity:0.2;fill:#000000;fill-opacity:1;stroke-width:1.05683"
     d="m 22.976562,17.074219 c -0.101149,-5.3e-4 -0.205528,0.001 -0.3125,0.0039 -2.441077,0.06589 -6.706699,1.041183 -6.933592,7.005858 -0.309065,-1.311065 -0.487507,-2.717995 -0.517578,-4.222655 -0.04275,1.880381 0.138766,3.618305 0.513671,5.21289 -0.0023,0.01835 -0.01474,0.111464 -0.03125,0.27539 0.0086,0.03436 0.01858,0.06735 0.02734,0.101563 0.0012,-0.120156 0.0055,-0.23718 0.0098,-0.353516 2.010086,8.498477 9.54907,12.90235 18.267547,12.90235 1.203188,-0.0025 2.597155,-0.128275 4.841797,-0.605469 0.436025,-0.404137 0.856196,-0.828116 1.257812,-1.273437 -2.729445,0.662115 -4.467016,0.875455 -6.099609,0.878906 -8.642681,0 -16.127556,-4.327597 -18.214843,-12.681641 0.750239,-7.221924 7.946204,-6.240699 8.521484,-6.150389 3.702412,1.008378 5.493305,3.344715 5.697265,5.951171 0.227302,-3.664346 -2.536931,-6.922855 -5.636718,-6.941406 -0.135107,-0.02121 -0.682581,-0.09981 -1.390626,-0.103515 z m 20.44336,11.667968 c -4.132872,3.439313 -12.229573,3.143324 -17.75586,2.40625 -0.326774,0.299618 -0.66174,0.589861 -1.007812,0.867187 5.639963,0.844766 13.989502,1.671357 18.373047,-1.976563 z" />
  <path
     id="path868"
     style="fill:url(#linearGradient12346);fill-opacity:1;stroke-width:1.05683"
     d="M 19.158203,4.6054691 C 10.254332,6.827089 4.0048406,14.823153 4.0000017,23.999999 4.0000013,35.045694 12.954306,44 24,44 29.658977,43.9971 35.05183,41.596931 38.841797,37.39453 37.258626,37.793214 35.632595,37.99655 34,38 22.954306,38 13.800502,30.933482 15.387033,17.424241 c 0.0028,-4.949279 0.453665,-9.145962 3.77117,-12.8187719 z"
     sodipodi:nodetypes="ccccccc" />
  <path
     id="path1194-5-5"
     style="fill:url(#linearGradient10518);fill-opacity:1;stroke-width:0.987776"
     d="M 24,4.0000002 C 23.501421,4.00025 23.003026,4.0191242 22.505859,4.0566402 12.069322,4.8385073 4.0003944,13.534215 4.0000017,23.999998 c 0.00741,10.79779 8.5844003,19.640187 19.3769523,19.976562 -9.248958,-8.237444 -7.64779,-18.928427 -7.64779,-18.928427 -0.30072,-9.455921 8.638024,-7.870399 8.638024,-7.870399 0,0 13.94642,-1.025661 18.523435,0.253905 -2e-4,-5.79e-4 2.04e-4,-0.0014 0,-0.002 -0.07733,-0.222399 -0.159534,-0.441875 -0.24412,-0.660157 -0.01928,-0.05021 -0.03885,-0.100339 -0.05858,-0.150391 -0.08387,-0.21134 -0.171213,-0.421591 -0.261733,-0.628907 l -0.0155,-0.03515 c -0.0015,-0.0035 -0.0042,-0.0063 -0.006,-0.0098 -0.208176,-0.473559 -0.432185,-0.93713 -0.673829,-1.388671 l -0.006,-0.01172 c -0.0036,-0.0067 -0.0079,-0.01281 -0.01172,-0.01954 -0.231307,-0.430419 -0.477932,-0.850399 -0.738195,-1.259681 l -0.0155,-0.02343 c -0.02154,-0.03262 -0.04286,-0.06517 -0.06444,-0.09766 -0.251802,-0.389537 -0.514479,-0.76964 -0.791103,-1.13866 l -0.0079,-0.0098 c -0.03745,-0.04965 -0.07532,-0.09913 -0.113309,-0.148436 -0.287547,-0.3757 -0.586322,-0.74087 -0.898439,-1.09375 -0.32897,-0.371943 -0.670798,-0.730778 -1.02539,-1.0761714 -0.0098,-0.00979 -0.01965,-0.01954 -0.02948,-0.029291 -0.0083,-0.00801 -0.01701,-0.015421 -0.02532,-0.023433 C 37.546809,9.2794206 37.176419,8.9463811 36.794922,8.6289061 36.404584,8.3040743 36.003457,7.9952596 35.589844,7.701172 c -7.35e-4,-5.224e-4 -0.0012,-0.00143 -0.002,-0.00195 -0.399486,-0.2839982 -0.810904,-0.5525578 -1.230422,-0.8066437 -0.01364,-0.00915 -0.02733,-0.018255 -0.04102,-0.027326 -0.007,-0.0042 -0.01451,-0.00752 -0.02147,-0.011717 l -0.0039,-0.00195 C 33.869103,6.5982692 33.436325,6.3605804 32.996094,6.1386722 l -0.01565,-0.00979 c -0.0031,-0.00157 -0.0066,-0.00233 -0.0098,-0.00389 C 32.524861,5.9010907 32.07207,5.6943932 31.609322,5.5039001 l -0.01758,-0.00782 c -0.0032,-0.00133 -0.0065,-0.00258 -0.0098,-0.00389 C 31.12457,5.3046885 30.657743,5.1360891 30.185517,4.9824305 l -0.03515,-0.013682 c -0.0076,-0.00246 -0.0158,-0.00339 -0.02345,-0.00585 -0.45485,-0.1464461 -0.915887,-0.2766558 -1.382812,-0.3906252 -0.04163,-0.010545 -0.0833,-0.020976 -0.125,-0.031257 -0.47769,-0.1133292 -0.962642,-0.2088681 -1.451172,-0.2871081 l -0.02733,-0.00586 c -0.0052,-8.194e-4 -0.01047,-0.00114 -0.01565,-0.00195 -0.491968,-0.077688 -0.988979,-0.1367886 -1.490234,-0.1777322 -0.03058,-0.00267 -0.06119,-0.00529 -0.0918,-0.00782 -0.03058,-0.00202 -0.06119,-0.00397 -0.0918,-0.00586 C 25.269294,4.041533 25.087113,4.029703 24.904244,4.021502 24.839154,4.018582 24.774047,4.015982 24.70893,4.013682 24.473178,4.005362 24.237249,4 23.999955,4 Z"
     sodipodi:nodetypes="ccccccccccccccccccccccscccsscccccccscccccsccccccccccc" />
  <path
     id="rect12928"
     style="opacity:0.2;fill:url(#linearGradient13781);fill-opacity:1;stroke-width:1.37585"
     d="m 19.72461,16.642578 c -3.882746,0.03567 -8.950709,1.065086 -15.3476552,3.562499 L 18.462892,34.291015 29.376953,23.376952 22.861329,16.861328 c -0.842219,-0.134619 -1.762085,-0.211388 -2.765625,-0.21875 -0.12279,-9.01e-4 -0.245844,-0.0012 -0.371094,0 z" />
  <path
     id="path1194"
     style="fill:url(#linearGradient9710);fill-opacity:1;stroke-width:0.987776"
     d="M 24,4.0000002 C 14.422666,4.0065203 6.1942147,10.80173 4.3769548,20.205077 16.626818,15.687756 19.72461,16.642578 24.153089,17.127553 c 5.481635,0.60031 8.463984,7.237778 3.061755,12.640024 -0.492668,0.486829 -1.010293,0.947736 -1.550782,1.38086 5.639962,0.844765 13.372312,1.241668 17.755861,-2.40625 0.382141,-1.551874 0.576888,-3.143959 0.580078,-4.742188 C 44.000001,12.954305 35.045695,3.9999998 24,4.0000002 Z"
     sodipodi:nodetypes="ccsccccc" />
  <path
     id="path868-6"
     style="opacity:0.2;fill:#ffffff;fill-opacity:1;stroke-width:1.05683"
     d="m 22.664062,16.078125 c -2.567304,0.06929 -7.152678,1.143338 -6.935546,7.970703 -1e-6,0 -0.01519,0.121803 -0.03322,0.300782 0.0086,0.03436 0.01856,0.06735 0.02733,0.101564 0.08457,-8.454205 7.980284,-7.377983 8.58402,-7.283205 3.702412,1.008378 5.493306,3.344716 5.697266,5.951171 0.217053,-2.994029 -1.526456,-5.815221 -5.697266,-6.951172 -0.154407,-0.02424 -0.786809,-0.112941 -1.642578,-0.08984 z m 21.324219,7.271484 c -0.02872,1.480552 -0.21411,2.953997 -0.568358,4.392578 -4.132871,3.439313 -11.221763,3.276138 -16.748048,2.539063 -0.326775,0.299618 -0.661741,0.589861 -1.007813,0.867187 5.639962,0.844766 13.372316,1.24167 17.755861,-2.40625 0.382144,-1.551874 0.576892,-3.143959 0.580078,-4.742187 0,-0.217803 -0.0049,-0.43427 -0.01172,-0.650391 z M 4.00586,23.515624 C 4.00193,23.676598 4.00008,23.838271 4,24 c 1.16e-4,0.168714 0.00158,0.33617 0.00586,0.503906 9.67e-5,0.0039 -9.91e-5,0.0078 0,0.01172 0.00427,0.163805 0.011338,0.327413 0.01954,0.490235 0.00828,0.167161 0.018898,0.333944 0.031257,0.499999 8.209e-4,0.01104 0.00111,0.02219 0.00195,0.03319 0.011868,0.154454 0.025663,0.307468 0.041016,0.460938 0.00148,0.01493 0.00239,0.03001 0.00389,0.04492 0.015307,0.149428 0.032202,0.298817 0.050782,0.447267 0.040596,0.326524 0.090342,0.65121 0.1464832,0.972655 0.028082,0.160797 0.057944,0.321018 0.089843,0.480469 1.8318447,9.156253 9.9141878,16.054684 19.6093738,16.054684 5.658978,-0.0029 11.051829,-2.403069 14.841796,-6.605465 -0.418904,0.105494 -0.841395,0.195386 -1.265625,0.273437 -3.678107,3.407078 -8.51888,5.32944 -13.576171,5.332033 -9.695186,0 -17.7775291,-6.898435 -19.6093738,-16.054687 C 4.3587222,26.78585 4.3288602,26.625628 4.3007782,26.464832 4.2446372,26.143387 4.1948947,25.818701 4.154295,25.492176 4.1357,25.343727 4.118805,25.194337 4.103513,25.04491 4.102023,25.03002 4.101103,25.0149 4.099623,24.99999 4.084278,24.846518 4.070483,24.693504 4.058607,24.539052 c -8.999e-4,-0.011 -0.00113,-0.02219 -0.00195,-0.03318 C 4.044298,24.339814 4.033715,24.173031 4.0254,24.005872 4.0172,23.843053 4.010168,23.679441 4.00586,23.515637 Z"
     sodipodi:nodetypes="sscccccsscccccssccsccsccccscccccssccccccc" />
  <path
     id="rect16179"
     style="opacity:0.2;fill:url(#linearGradient16523);fill-opacity:1;stroke-width:0.997943"
     d="m 15.726563,25.068358 v 4.001953 c 0.375741,3.862427 1.956828,9.851316 7.640625,14.917969 C 23.577621,43.99468 23.787961,44 24,44 c 3.036597,-0.0016 5.997024,-0.694231 8.673828,-1.984376 l -4.808594,-4.80859 C 21.909445,35.588727 17.235898,31.50061 15.726563,25.068358 Z" />
  <path
     id="rect17125"
     style="opacity:0.2;fill:url(#linearGradient17995);fill-opacity:1;stroke-width:0.923327"
     d="m 28.773438,18.841797 c 0.994573,1.244559 1.402936,2.743313 1.291015,4.287108 -0.03824,-0.48871 -0.133193,-0.968896 -0.285156,-1.43164 0.731445,2.401112 0.118057,5.387795 -2.564453,8.070312 -0.492669,0.48683 -1.010294,0.947737 -1.550782,1.38086 4.505438,0.674833 10.343956,1.060505 14.746095,-0.669922 z" />
</svg>
