<?xml version="1.0" encoding="UTF-8" standalone="no"?>
<svg
   height="48"
   width="48"
   version="1.1"
   id="svg24"
   sodipodi:docname="qdbusviewer.svg"
   inkscape:version="1.4.1 (93de688d07, 2025-03-30)"
   xmlns:inkscape="http://www.inkscape.org/namespaces/inkscape"
   xmlns:sodipodi="http://sodipodi.sourceforge.net/DTD/sodipodi-0.dtd"
   xmlns:xlink="http://www.w3.org/1999/xlink"
   xmlns="http://www.w3.org/2000/svg"
   xmlns:svg="http://www.w3.org/2000/svg">
  <defs
     id="defs28">
    <linearGradient
       id="e"
       x1="548.57001"
       x2="562.57001"
       gradientUnits="userSpaceOnUse"
       gradientTransform="matrix(0,0.7142834,-0.87500263,0,50.87466,24.142867)">
      <stop
         stop-color="#faae2a"
         id="stop7" />
      <stop
         offset="1"
         stop-color="#ffc35a"
         id="stop8" />
    </linearGradient>
    <linearGradient
       id="linearGradient2"
       x1="548.57001"
       x2="562.57001"
       gradientUnits="userSpaceOnUse">
      <stop
         stop-color="#faae2a"
         id="stop1" />
      <stop
         offset="1"
         stop-color="#ffc35a"
         id="stop2-3" />
    </linearGradient>
    <linearGradient
       id="f"
       x1="548.57001"
       x2="562.57001"
       gradientUnits="userSpaceOnUse"
       gradientTransform="matrix(0,0.7142834,0.87500263,0,25.124741,31.143247)">
      <stop
         stop-color="#c61423"
         id="stop9-6" />
      <stop
         offset="1"
         stop-color="#dc2b41"
         id="stop10" />
    </linearGradient>
    <linearGradient
       id="linearGradient4"
       x1="548.57001"
       x2="562.57001"
       gradientUnits="userSpaceOnUse">
      <stop
         stop-color="#c61423"
         id="stop3" />
      <stop
         offset="1"
         stop-color="#dc2b41"
         id="stop4-7" />
    </linearGradient>
  </defs>
  <sodipodi:namedview
     id="namedview26"
     pagecolor="#ffffff"
     bordercolor="#666666"
     borderopacity="1.0"
     inkscape:pageshadow="2"
     inkscape:pageopacity="0.0"
     inkscape:pagecheckerboard="0"
     showgrid="false"
     showguides="false"
     inkscape:zoom="14.8125"
     inkscape:cx="23.966245"
     inkscape:cy="24"
     inkscape:window-width="1491"
     inkscape:window-height="925"
     inkscape:window-x="0"
     inkscape:window-y="0"
     inkscape:window-maximized="0"
     inkscape:current-layer="svg24"
     inkscape:showpageshadow="2"
     inkscape:deskcolor="#d1d1d1" />
  <linearGradient
     id="b"
     gradientUnits="userSpaceOnUse"
     x1="32"
     x2="32"
     y1="28"
     y2="4"
     gradientTransform="matrix(1.375,0,0,1.375,2,1.5)">
    <stop
       offset="0"
       stop-color="#17a81a"
       id="stop2" />
    <stop
       offset="1"
       stop-color="#41cd52"
       id="stop4" />
  </linearGradient>
  <linearGradient
     id="d"
     gradientUnits="userSpaceOnUse"
     x1="20"
     x2="29"
     xlink:href="#a"
     y1="12"
     y2="21"
     gradientTransform="matrix(1.375,0,0,1.375,2,1.5)" />
  <linearGradient
     id="c"
     gradientUnits="userSpaceOnUse"
     x1="8"
     x2="21"
     xlink:href="#a"
     y1="10"
     y2="23"
     gradientTransform="matrix(1.375,0,0,1.375,2,1.5)" />
  <linearGradient
     id="a"
     gradientTransform="translate(1.01,-1.022)"
     gradientUnits="userSpaceOnUse"
     x1="-14.65"
     x2="-6.4299998"
     y1="9.1780005"
     y2="17.521999">
    <stop
       offset="0"
       stop-color="#292c2f"
       id="stop9" />
    <stop
       offset="1"
       stop-opacity="0"
       id="stop11" />
  </linearGradient>
  <path
     d="M 8.875,7 2,13.875 V 40 H 39.125 L 46,33.125 V 7 Z"
     fill="url(#b)"
     fill-rule="evenodd"
     id="path14"
     style="fill:url(#b);stroke-width:1.375" />
  <path
     d="M 40.5,38.625 39.125,40 H 2 v -1.375 z"
     fill="#292c2f"
     opacity="0.2"
     id="path16"
     style="stroke-width:1.375" />
  <path
     d="M 12.69475,31.65375 19.666,38.625 h 18.288875 l -6.06925,-6.06925 v -8.342125 l -3.02775,-3.02775 V 19.21 L 24.16225,14.514375 18.5,13.875 13,15.25 Z"
     fill="url(#c)"
     opacity="0.2"
     id="path18"
     style="fill:url(#c);stroke-width:1.375" />
  <path
     d="m 28.857875,21.185875 3.02775,3.02775 v 8.342125 l 6.06925,6.06925 H 40.5 l 5.5,-5.5 V 26.300875 L 33.904125,14.205 Z"
     fill="url(#d)"
     opacity="0.2"
     id="path20"
     style="fill:url(#d);stroke-width:1.375" />
  <path
     d="m 18.495875,33.448125 q -4.576,0 -6.39375,-2.464 -1.79025,-2.464 -1.79025,-7.77425 0,-5.33775 1.819125,-7.92 1.848,-2.580875 6.36625,-2.580875 4.516875,0 6.334625,2.580875 1.819125,2.552 1.819125,7.891125 0,3.52 -0.763125,5.691125 -0.732875,2.16975 -2.43375,3.31375 l 2.464,3.96 -3.02225,1.408 -2.60975,-4.28175 q -0.55825,0.176 -1.79025,0.176 z M 14.683,28.901 q 0.996875,1.700875 3.812875,1.700875 2.816,0 3.784,-1.672 0.99825,-1.700875 0.99825,-5.72 0,-4.01775 -1.027125,-5.836875 -0.996875,-1.819125 -3.75375,-1.819125 -2.75825,0 -3.785375,1.819125 -1.02575,1.819125 -1.02575,5.808 0,3.988875 0.996875,5.72 z m 23.269125,-7.715125 h -4.048 v 6.45425 q 0,1.788875 0.264,2.376 0.264,0.58575 1.348875,0.58575 l 2.40625,-0.088 0.14575,2.552 q -1.96625,0.38225 -2.992,0.38225 -2.492875,0 -3.432,-1.144 -0.908875,-1.144 -0.908875,-4.312 v -6.80625 h -1.87825 v -2.728 H 30.7375 V 14.205 h 3.168 v 4.252875 h 4.048 z"
     fill="#fcfcfc"
     id="path22"
     style="stroke-width:1.375" />
  <path
     id="use15"
     d="M 47.999401,31.999984 41.999508,27 v 2.99999 l -11.999786,1.999994 11.999786,1.999994 v 2.99999 z"
     style="fill:url(#e);stroke-width:0.790569" />
  <path
     id="use16"
     d="m 28,39.000364 5.999893,-4.999983 v 2.99999 l 11.999786,1.999993 -11.999786,1.999994 v 2.99999 z"
     style="fill:url(#f);stroke-width:0.790569" />
  <g
     color-rendering="auto"
     shape-rendering="auto"
     color-interpolation-filters="linearRGB"
     image-rendering="auto"
     fill-rule="evenodd"
     text-rendering="auto"
     color-interpolation="sRGB"
     color="#000000"
     id="g17"
     transform="matrix(0.99317,0,0,0.97839,45.973366,4.86467)">
    <path
       fill="#aa111e"
       d="M 28.779,38.35 28,39 34,44 V 42.699 Z M 42.98,38.496 34,39.994 v 1.01 l 12,-2 z"
       transform="matrix(1.0069,0,0,1.02209,-46.29,-4.972)"
       id="path16-5" />
    <path
       fill="#e59305"
       d="m 1.256,27.07 0.785,0.665 -6.04,5.11 v -1.33 z m -14.299,0.15 9.04,1.531 v 1.028 l -12.08,-2.044 z"
       id="path17" />
  </g>
</svg>
