<?xml version="1.0" encoding="UTF-8" standalone="no"?>
<svg
   width="48"
   height="48"
   version="1.1"
   id="svg3"
   sodipodi:docname="rust.svg"
   inkscape:version="1.4.2 (ebf0e940d0, 2025-05-08)"
   xmlns:inkscape="http://www.inkscape.org/namespaces/inkscape"
   xmlns:sodipodi="http://sodipodi.sourceforge.net/DTD/sodipodi-0.dtd"
   xmlns:xlink="http://www.w3.org/1999/xlink"
   xmlns="http://www.w3.org/2000/svg"
   xmlns:svg="http://www.w3.org/2000/svg">
  <sodipodi:namedview
     id="namedview3"
     pagecolor="#ffffff"
     bordercolor="#000000"
     borderopacity="0.25"
     inkscape:showpageshadow="2"
     inkscape:pageopacity="0.0"
     inkscape:pagecheckerboard="0"
     inkscape:deskcolor="#d1d1d1"
     inkscape:zoom="16.583333"
     inkscape:cx="23.969849"
     inkscape:cy="24"
     inkscape:window-width="1920"
     inkscape:window-height="1010"
     inkscape:window-x="0"
     inkscape:window-y="0"
     inkscape:window-maximized="1"
     inkscape:current-layer="svg3" />
  <defs
     id="defs2">
    <linearGradient
       id="linearGradient504"
       inkscape:collect="always">
      <stop
         style="stop-color:#000000;stop-opacity:1;"
         offset="0"
         id="stop504" />
      <stop
         style="stop-color:#000000;stop-opacity:0;"
         offset="1"
         id="stop505" />
    </linearGradient>
    <linearGradient
       inkscape:collect="always"
       id="linearGradient2">
      <stop
         style="stop-color:#b9130c;stop-opacity:1;"
         offset="0"
         id="stop1" />
      <stop
         style="stop-color:#e5715d;stop-opacity:1;"
         offset="1"
         id="stop2" />
    </linearGradient>
    <linearGradient
       gradientTransform="translate(-384.57001,-499.79999)"
       xlink:href="#linearGradient2"
       id="linearGradient4236"
       x1="407.62601"
       y1="543.76801"
       x2="407.26489"
       y2="503.79999"
       gradientUnits="userSpaceOnUse" />
    <linearGradient
       inkscape:collect="always"
       xlink:href="#linearGradient504"
       id="linearGradient505"
       x1="29"
       y1="11"
       x2="44"
       y2="26"
       gradientUnits="userSpaceOnUse" />
  </defs>
  <rect
     style="fill:url(#linearGradient4236);fill-opacity:1"
     width="40"
     height="40"
     x="4.0000114"
     y="4.0000043"
     ry="3"
     id="rect2" />
  <path
     id="path1"
     style="opacity:0.2;fill:url(#linearGradient505)"
     d="M 29 11 L 22 19 L 23.017578 20 L 22 22 L 24.267578 24.242188 L 23.240234 25.267578 L 21 23 L 19 24.017578 L 18 23 L 10 30 L 24 44 L 41 44 C 42.662 44 44 42.662 44 41 L 44 26 L 29 11 z " />
  <path
     style="opacity:0.15;fill:#000000;fill-opacity:1"
     d="m 4,40 v 1 c 0,1.662 1.338,3 3,3 h 34 c 1.662,0 3,-1.338 3,-3 v -1 c 0,1.662 -1.338,3 -3,3 H 7 C 5.338,43 4,41.662 4,40 Z"
     id="path2" />
  <path
     d="m 20,11 2,8 h 5 l 2,-8 z m 2,9 v 2 h 5 v -2 z m -12,1 v 9 l 8,-2 v -5 z m 9,2 v 5 h 2 v -5 z m 5.50586,1.00195 -1.5,1.5 1.5,1.5 1.5,-1.5 z m 4.03711,2.26953 -3.53516,3.53516 1.41405,1.41603 3.53543,-3.53684 z m 2.1133,2.12108 -3.53543,3.53684 4.24219,7.07031 6.36496,-6.36355 z"
     style="fill:#ffffff"
     id="path3" />
</svg>
