<?xml version="1.0" encoding="UTF-8" standalone="no"?>
<svg
   width="48"
   height="48"
   version="1.1"
   id="svg9"
   sodipodi:docname="waydroid.svg"
   inkscape:version="1.4.2 (ebf0e940d0, 2025-05-08)"
   xmlns:inkscape="http://www.inkscape.org/namespaces/inkscape"
   xmlns:sodipodi="http://sodipodi.sourceforge.net/DTD/sodipodi-0.dtd"
   xmlns:xlink="http://www.w3.org/1999/xlink"
   xmlns="http://www.w3.org/2000/svg"
   xmlns:svg="http://www.w3.org/2000/svg">
  <sodipodi:namedview
     id="namedview9"
     pagecolor="#ffffff"
     bordercolor="#000000"
     borderopacity="0.25"
     inkscape:showpageshadow="2"
     inkscape:pageopacity="0.0"
     inkscape:pagecheckerboard="0"
     inkscape:deskcolor="#d1d1d1"
     inkscape:zoom="16.583333"
     inkscape:cx="23.969849"
     inkscape:cy="24"
     inkscape:window-width="1920"
     inkscape:window-height="1010"
     inkscape:window-x="0"
     inkscape:window-y="0"
     inkscape:window-maximized="1"
     inkscape:current-layer="svg9" />
  <defs
     id="defs9">
    <linearGradient
       id="linearGradient515"
       inkscape:collect="always">
      <stop
         style="stop-color:#fea00e;stop-opacity:1;"
         offset="0"
         id="stop515" />
      <stop
         style="stop-color:#fec124;stop-opacity:1;"
         offset="1"
         id="stop516" />
    </linearGradient>
    <linearGradient
       id="linearGradient513"
       inkscape:collect="always">
      <stop
         style="stop-color:#31c47f;stop-opacity:1;"
         offset="0"
         id="stop513" />
      <stop
         style="stop-color:#79d983;stop-opacity:1;"
         offset="1"
         id="stop514" />
    </linearGradient>
    <linearGradient
       id="linearGradient511"
       inkscape:collect="always">
      <stop
         style="stop-color:#000000;stop-opacity:1;"
         offset="0"
         id="stop511" />
      <stop
         style="stop-color:#000000;stop-opacity:0;"
         offset="1"
         id="stop512" />
    </linearGradient>
    <linearGradient
       inkscape:collect="always"
       xlink:href="#linearGradient511"
       id="linearGradient512"
       x1="30.37661"
       y1="22.128906"
       x2="41.379555"
       y2="32.677959"
       gradientUnits="userSpaceOnUse"
       gradientTransform="translate(0,1)" />
    <linearGradient
       inkscape:collect="always"
       xlink:href="#linearGradient513"
       id="linearGradient514"
       x1="43"
       y1="45"
       x2="42.78986"
       y2="3"
       gradientUnits="userSpaceOnUse" />
    <linearGradient
       inkscape:collect="always"
       xlink:href="#linearGradient515"
       id="linearGradient516"
       x1="43"
       y1="45"
       x2="42.78986"
       y2="7.691205"
       gradientUnits="userSpaceOnUse" />
  </defs>
  <path
     id="path2"
     style="fill:url(#linearGradient514)"
     d="M 9.53125,3 8,4.2851562 13.138672,10.408203 c -4.1329046,2.88467 -7.0662839,7.370827 -7.8984376,12.558594 -0.1584051,0.98752 0.625,2.141656 0.625,3.173828 0,10.49341 8.0476046,16.818359 18.5410156,16.818359 10.49341,0 17.126953,-6.403074 17.126953,-16.896484 0,-0.985855 1.390856,-2.017516 1.246094,-2.962891 -0.803011,-5.244105 -3.749761,-9.782096 -7.917969,-12.691406 L 40,4.2851562 38.46875,3 33.146484,9.3417969 C 30.433243,7.8488854 27.315645,7 24,7 20.684355,7 17.566757,7.8488853 14.853516,9.3417969 Z" />
  <path
     style="fill:url(#linearGradient516)"
     d="M 42.689453,22.603516 C 35.6529,24.12649 27.939393,25 24,25 19.889198,25 12.110334,24.217489 5.3144531,22.742188 A 19,19 0 0 0 5,26 19,19 0 0 0 24,45 19,19 0 0 0 43,26 19,19 0 0 0 42.689453,22.603516 Z"
     id="path3" />
  <path
     id="rect511"
     style="opacity:0.2;fill:url(#linearGradient512)"
     d="M 40.107422,23.128906 32.75,33.462891 21.126953,28.033203 l -7.634765,11.636719 4.367187,4.310547 a 19,19 0 0 0 0.002,0 A 19,19 0 0 0 24,45 19,19 0 0 0 43,26.021484 Z" />
  <path
     style="fill:#ffffff"
     d="m 40.107422,23.128906 c -2.134389,0.407475 -4.266823,0.745002 -6.306641,1.025391 l -1.851562,7.107422 -5.302735,-6.363281 C 25.660369,24.959531 24.745786,25 24,25 23.246846,25 22.33799,24.96409 21.367188,24.91211 L 16.052734,31.142578 14.273438,24.25 C 12.139952,23.97906 9.9197959,23.641594 7.7285156,23.228516 l 5.2460934,15.692281 c 0.743901,1.514261 1.703467,1.23476 2.730469,0.386718 l 8.376953,-8.928609 8.09961,8.67275 c 0.975142,1.321869 2.33185,1.422961 3.011718,-0.951172 z"
     id="path6" />
  <path
     id="path512"
     style="opacity:0.2;fill:#000000;stroke-width:1.05556"
     d="M 5.0332031 25.5 A 19 19 0 0 0 5 26 A 19 19 0 0 0 24 45 A 19 19 0 0 0 43 26 A 19 19 0 0 0 42.966797 25.5 A 19 19 0 0 1 24 44 A 19 19 0 0 1 5.0332031 25.5 z " />
</svg>
