<?xml version="1.0" encoding="UTF-8" standalone="no"?>
<svg
   fill="none"
   viewBox="0 0 48 48"
   version="1.1"
   id="svg22"
   sodipodi:docname="winetricks.svg"
   inkscape:version="1.4.2 (ebf0e940d0, 2025-05-08)"
   xmlns:inkscape="http://www.inkscape.org/namespaces/inkscape"
   xmlns:sodipodi="http://sodipodi.sourceforge.net/DTD/sodipodi-0.dtd"
   xmlns="http://www.w3.org/2000/svg"
   xmlns:svg="http://www.w3.org/2000/svg">
  <sodipodi:namedview
     id="namedview22"
     pagecolor="#ffffff"
     bordercolor="#000000"
     borderopacity="0.25"
     inkscape:showpageshadow="2"
     inkscape:pageopacity="0.0"
     inkscape:pagecheckerboard="0"
     inkscape:deskcolor="#d1d1d1"
     inkscape:zoom="16.583333"
     inkscape:cx="23.969849"
     inkscape:cy="24"
     inkscape:window-width="1920"
     inkscape:window-height="1010"
     inkscape:window-x="0"
     inkscape:window-y="0"
     inkscape:window-maximized="1"
     inkscape:current-layer="svg22" />
  <defs
     id="defs6">
    <linearGradient
       id="a"
       x1="30.625"
       x2="44"
       y1="28"
       y2="42"
       gradientUnits="userSpaceOnUse">
      <stop
         id="stop1" />
      <stop
         offset="1"
         stop-opacity=".326"
         id="stop2" />
    </linearGradient>
    <linearGradient
       id="b"
       x1="16.752"
       x2="36.002"
       y1="-4.5"
       y2="32"
       gradientUnits="userSpaceOnUse">
      <stop
         stop-color="#fff"
         id="stop3" />
      <stop
         offset="1"
         stop-color="#fff"
         stop-opacity="0"
         id="stop4" />
    </linearGradient>
    <radialGradient
       id="c"
       cx="0"
       cy="0"
       r="1"
       gradientTransform="rotate(90.541 3.31 20.92)scale(8.57577 8.88313)"
       gradientUnits="userSpaceOnUse">
      <stop
         stop-color="#F10000"
         id="stop5" />
      <stop
         offset="1"
         stop-color="#B20000"
         id="stop6" />
    </radialGradient>
    <style
       type="text/css"
       id="current-color-scheme" />
    <linearGradient
       id="a-5"
       gradientUnits="userSpaceOnUse"
       x1="5.8225756"
       x2="15.75002"
       y1="7.1934686"
       y2="17.37501"
       gradientTransform="matrix(2,0,0,2,2,3)">
      <stop
         offset="0"
         id="stop1-6" />
      <stop
         offset="1"
         stop-opacity="0"
         id="stop2-2" />
    </linearGradient>
    <linearGradient
       id="b-9"
       gradientUnits="userSpaceOnUse"
       x1="10"
       x2="10"
       y1="15"
       y2="4.5"
       gradientTransform="matrix(2,0,0,2,2,3)">
      <stop
         offset="0"
         stop-color="#eff0f1"
         id="stop3-1" />
      <stop
         offset="1"
         stop-color="#fcfcfc"
         id="stop4-2" />
    </linearGradient>
  </defs>
  <path
     fill="#0E56AC"
     d="M24.156 23.813 4 18.843V43c0 .554.446 1 1 1h16.02z"
     id="path6" />
  <path
     fill="#0878CA"
     d="M5 4c-.554 0-1 .446-1 1v15l20 4 4-20zm39 24-20-4-4 20h23c.554 0 1-.446 1-1z"
     id="path7" />
  <path
     fill="#0E56AC"
     d="M26.868 4 23.8 24.188 44 28.031V5c0-.554-.447-1-1-1z"
     id="path8" />
  <path
     fill="#1F1F68"
     d="M4.002 42v1c0 .554.446 1 1 1h38c.554 0 1-.446 1-1v-1c0 .554-.446 1-1 1h-38c-.554 0-1-.446-1-1"
     opacity=".472"
     id="path12" />
  <path
     fill="#fff"
     d="M4.002 6V5c0-.554.446-1 1-1h38c.554 0 1 .446 1 1v1c0-.554-.446-1-1-1h-38c-.554 0-1 .446-1 1"
     opacity=".35"
     id="path13" />
  <path
     fill="#fff"
     d="M4.22 4.25v.156c0 .216.15.396.425.502-.442.147-.645.547-.645.817v.156C4 5.547 4.415 5 5 5h.154c.02.001.034.007.055.007h37.555c.02 0 .034-.006.054-.006H43c.593 0 1 .557 1 .89v-.156c0-.27-.242-.682-.672-.83.272-.106.424-.285.424-.5V4.25c0 .323-.416.58-.94.596H5.16c-.523-.017-.94-.273-.94-.596"
     opacity=".417"
     id="path14" />
  <path
     fill="#5B84FF"
     d="M4.22 43.752v-.156c0-.216.15-.396.425-.502-.442-.148-.645-.547-.645-.817v-.156c0 .334.415.879 1 .879h.154c.02 0 .034-.006.055-.006h37.555c.02 0 .034.005.054.006H43c.593 0 1-.557 1-.89v.156c0 .27-.242.682-.672.83.272.106.424.285.424.5v.156c0-.323-.416-.58-.94-.596H5.16c-.523.017-.94.273-.94.596"
     opacity=".548"
     id="path15" />
  <path
     id="path19"
     style="opacity:0.2;fill:url(#a-5);stroke-width:2"
     d="M 22 12 L 21 14 L 19 15 L 25 21 L 24 21.738281 L 15 12.761719 L 14.583984 13.595703 L 13.738281 14.023438 L 22.738281 23 L 22 23 L 17 18 L 16.333984 19.333984 L 15 20 L 20 25 L 12.878906 31.878906 L 25 44 L 43 44 C 43.552285 44 44 43.552285 44 43 L 44 29 L 35.121094 18.121094 L 30.820312 15.398438 L 28 18 L 22 12 z " />
  <path
     fill="#6E6E6E"
     fill-opacity=".194"
     d="M43 4H5a1 1 0 0 0-1 1v38a1 1 0 0 0 1 1h38a1 1 0 0 0 1-1V5a1 1 0 0 0-1-1"
     id="path10" />
  <path
     fill="url(#b)"
     d="M43.002 4h-38a1 1 0 0 0-1 1v38a1 1 0 0 0 1 1h38a1 1 0 0 0 1-1V5a1 1 0 0 0-1-1"
     opacity=".551"
     id="path11" />
  <path
     id="path20"
     style="fill:url(#b-9)"
     d="M 22 12 L 21 14 L 19 15 L 21 16 L 22 18 L 23 16 L 25 15 L 23 14 L 22 12 z M 15 12.761719 L 14.583984 13.595703 L 13.75 14.011719 L 14.583984 14.427734 L 15 15.261719 L 15.416016 14.427734 L 16.25 14.011719 L 15.416016 13.595703 L 15 12.761719 z M 30.878906 13.878906 L 12.878906 31.878906 L 17.121094 36.121094 L 35.121094 18.121094 L 30.878906 13.878906 z M 30.820312 15.398438 L 33.601562 18.179688 L 27.378906 24.378906 L 24.621094 21.621094 L 30.820312 15.398438 z M 17 18 L 16.333984 19.333984 L 15 20 L 16.333984 20.666016 L 17 22 L 17.666016 20.666016 L 19 20 L 17.666016 19.333984 L 17 18 z " />
</svg>
