<?xml version="1.0" encoding="UTF-8" standalone="no"?>
<svg
   fill="none"
   viewBox="0 0 48 48"
   version="1.1"
   id="svg22"
   sodipodi:docname="winecfg.svg"
   inkscape:version="1.4.2 (ebf0e940d0, 2025-05-08)"
   xmlns:inkscape="http://www.inkscape.org/namespaces/inkscape"
   xmlns:sodipodi="http://sodipodi.sourceforge.net/DTD/sodipodi-0.dtd"
   xmlns:xlink="http://www.w3.org/1999/xlink"
   xmlns="http://www.w3.org/2000/svg"
   xmlns:svg="http://www.w3.org/2000/svg">
  <sodipodi:namedview
     id="namedview22"
     pagecolor="#ffffff"
     bordercolor="#000000"
     borderopacity="0.25"
     inkscape:showpageshadow="2"
     inkscape:pageopacity="0.0"
     inkscape:pagecheckerboard="0"
     inkscape:deskcolor="#d1d1d1"
     inkscape:zoom="16.583333"
     inkscape:cx="23.969849"
     inkscape:cy="24"
     inkscape:window-width="1920"
     inkscape:window-height="1010"
     inkscape:window-x="0"
     inkscape:window-y="0"
     inkscape:window-maximized="1"
     inkscape:current-layer="svg22" />
  <defs
     id="defs6">
    <linearGradient
       id="a"
       x1="30.625"
       x2="44"
       y1="28"
       y2="42"
       gradientUnits="userSpaceOnUse">
      <stop
         id="stop1" />
      <stop
         offset="1"
         stop-opacity=".326"
         id="stop2" />
    </linearGradient>
    <linearGradient
       id="b"
       x1="16.752"
       x2="36.002"
       y1="-4.5"
       y2="32"
       gradientUnits="userSpaceOnUse">
      <stop
         stop-color="#fff"
         id="stop3" />
      <stop
         offset="1"
         stop-color="#fff"
         stop-opacity="0"
         id="stop4" />
    </linearGradient>
    <radialGradient
       id="c"
       cx="0"
       cy="0"
       r="1"
       gradientTransform="rotate(90.541 3.31 20.92)scale(8.57577 8.88313)"
       gradientUnits="userSpaceOnUse">
      <stop
         stop-color="#F10000"
         id="stop5" />
      <stop
         offset="1"
         stop-color="#B20000"
         id="stop6" />
    </radialGradient>
    <style
       type="text/css"
       id="current-color-scheme" />
    <linearGradient
       xlink:href="#linearGradient4298"
       id="linearGradient4304"
       x1="26.929001"
       y1="5.9949999"
       x2="47.120998"
       y2="37.126999"
       gradientUnits="userSpaceOnUse"
       gradientTransform="translate(-7.81e-5)" />
    <linearGradient
       id="linearGradient4298">
      <stop
         style="stop-color:#000000;stop-opacity:1;"
         offset="0"
         id="stop4300" />
      <stop
         style="stop-color:#000000;stop-opacity:0;"
         offset="1"
         id="stop4302" />
    </linearGradient>
  </defs>
  <path
     fill="#0E56AC"
     d="M24.156 23.813 4 18.843V43c0 .554.446 1 1 1h16.02z"
     id="path6" />
  <path
     fill="#0878CA"
     d="M5 4c-.554 0-1 .446-1 1v15l20 4 4-20zm39 24-20-4-4 20h23c.554 0 1-.446 1-1z"
     id="path7" />
  <path
     fill="#0E56AC"
     d="M26.868 4 23.8 24.188 44 28.031V5c0-.554-.447-1-1-1z"
     id="path8" />
  <path
     style="color:#000000;clip-rule:nonzero;display:inline;overflow:visible;visibility:visible;opacity:0.4;isolation:auto;mix-blend-mode:normal;color-interpolation:sRGB;color-interpolation-filters:linearRGB;solid-color:#000000;solid-opacity:1;fill:url(#linearGradient4304);fill-opacity:1;fill-rule:evenodd;stroke:none;stroke-width:1;stroke-linecap:butt;stroke-linejoin:miter;stroke-miterlimit:4;stroke-dasharray:none;stroke-dashoffset:0;stroke-opacity:1;color-rendering:auto;image-rendering:auto;shape-rendering:auto;text-rendering:auto;enable-background:accumulate"
     d="M 9.2309802,29.687039 22.543941,43 h 21.455981 l -0.0039,-16.125 -9.964844,-9.984375 -24.7500001,2.851562 8.7187501,8.71875 z"
     id="path4265" />
  <path
     fill="#6E6E6E"
     fill-opacity=".194"
     d="M43 4H5a1 1 0 0 0-1 1v38a1 1 0 0 0 1 1h38a1 1 0 0 0 1-1V5a1 1 0 0 0-1-1"
     id="path10" />
  <path
     fill="url(#b)"
     d="M43.002 4h-38a1 1 0 0 0-1 1v38a1 1 0 0 0 1 1h38a1 1 0 0 0 1-1V5a1 1 0 0 0-1-1"
     opacity=".551"
     id="path11" />
  <path
     fill="#1F1F68"
     d="M4.002 42v1c0 .554.446 1 1 1h38c.554 0 1-.446 1-1v-1c0 .554-.446 1-1 1h-38c-.554 0-1-.446-1-1"
     opacity=".472"
     id="path12" />
  <path
     fill="#fff"
     d="M4.002 6V5c0-.554.446-1 1-1h38c.554 0 1 .446 1 1v1c0-.554-.446-1-1-1h-38c-.554 0-1 .446-1 1"
     opacity=".35"
     id="path13" />
  <path
     fill="#fff"
     d="M4.22 4.25v.156c0 .216.15.396.425.502-.442.147-.645.547-.645.817v.156C4 5.547 4.415 5 5 5h.154c.02.001.034.007.055.007h37.555c.02 0 .034-.006.054-.006H43c.593 0 1 .557 1 .89v-.156c0-.27-.242-.682-.672-.83.272-.106.424-.285.424-.5V4.25c0 .323-.416.58-.94.596H5.16c-.523-.017-.94-.273-.94-.596"
     opacity=".417"
     id="path14" />
  <path
     fill="#5B84FF"
     d="M4.22 43.752v-.156c0-.216.15-.396.425-.502-.442-.148-.645-.547-.645-.817v-.156c0 .334.415.879 1 .879h.154c.02 0 .034-.006.055-.006h37.555c.02 0 .034.005.054.006H43c.593 0 1-.557 1-.89v.156c0 .27-.242.682-.672.83.272.106.424.285.424.5v.156c0-.323-.416-.58-.94-.596H5.16c-.523.017-.94.273-.94.596"
     opacity=".548"
     id="path15" />
  <rect
     style="color:#000000;clip-rule:nonzero;display:inline;overflow:visible;visibility:visible;opacity:0.194;isolation:auto;mix-blend-mode:normal;color-interpolation:sRGB;color-interpolation-filters:linearRGB;solid-color:#000000;solid-opacity:1;fill:#ffffff;fill-opacity:1;fill-rule:evenodd;stroke:none;stroke-width:1;stroke-linecap:butt;stroke-linejoin:miter;stroke-miterlimit:4;stroke-dasharray:none;stroke-dashoffset:0;stroke-opacity:1;marker:none;color-rendering:auto;image-rendering:auto;shape-rendering:auto;text-rendering:auto;enable-background:accumulate"
     id="rect4159"
     width="30"
     height="2"
     x="8.9999218"
     y="18"
     rx="1"
     ry="0.95599997" />
  <path
     id="path4172"
     d="m 9.961359,17.987883 c -0.5571198,0 -1.0056313,0.448511 -1.0056313,1.005631 0,0.55712 0.4485115,1.005631 1.0056313,1.005631 h 21.05631 v -2.011262 z"
     style="fill:#8d949b;fill-opacity:1"
     class="ColorScheme-Accent" />
  <path
     style="color:#000000;clip-rule:nonzero;display:inline;overflow:visible;visibility:visible;opacity:0.3;isolation:auto;mix-blend-mode:normal;color-interpolation:sRGB;color-interpolation-filters:linearRGB;solid-color:#000000;solid-opacity:1;fill:#ffffff;fill-opacity:1;fill-rule:evenodd;stroke:none;stroke-width:1;stroke-linecap:butt;stroke-linejoin:miter;stroke-miterlimit:4;stroke-dasharray:none;stroke-dashoffset:0;stroke-opacity:1;marker:none;color-rendering:auto;image-rendering:auto;shape-rendering:auto;text-rendering:auto;enable-background:accumulate"
     d="m 9.960859,17.988281 c -0.557119,0 -1.005859,0.44874 -1.005859,1.00586 0,0.09473 0.030425,0.178848 0.054687,0.265625 0.11802,-0.424223 0.4883267,-0.740235 0.951172,-0.740235 H 31.0175 v -0.53125 z"
     id="path4242" />
  <circle
     r="2.9119999"
     cy="18.938999"
     cx="31.971922"
     id="circle4174"
     style="color:#000000;clip-rule:nonzero;display:inline;overflow:visible;visibility:visible;isolation:auto;mix-blend-mode:normal;color-interpolation:sRGB;color-interpolation-filters:linearRGB;solid-color:#000000;solid-opacity:1;fill:#fafafa;fill-opacity:1;fill-rule:evenodd;stroke:none;stroke-width:1;stroke-linecap:butt;stroke-linejoin:miter;stroke-miterlimit:4;stroke-dasharray:none;stroke-dashoffset:0;stroke-opacity:1;marker:none;color-rendering:auto;image-rendering:auto;shape-rendering:auto;text-rendering:auto;enable-background:accumulate" />
  <rect
     ry="0.82300001"
     rx="1"
     y="28"
     x="8.9999218"
     height="2"
     width="30"
     id="rect4225"
     style="color:#000000;clip-rule:nonzero;display:inline;overflow:visible;visibility:visible;opacity:0.194;isolation:auto;mix-blend-mode:normal;color-interpolation:sRGB;color-interpolation-filters:linearRGB;solid-color:#000000;solid-opacity:1;fill:#ffffff;fill-opacity:1;fill-rule:evenodd;stroke:none;stroke-width:1;stroke-linecap:butt;stroke-linejoin:miter;stroke-miterlimit:4;stroke-dasharray:none;stroke-dashoffset:0;stroke-opacity:1;marker:none;color-rendering:auto;image-rendering:auto;shape-rendering:auto;text-rendering:auto;enable-background:accumulate" />
  <path
     style="fill:#8d949b;fill-opacity:1"
     d="m 9.961359,27.987883 c -0.5571198,0 -1.0056313,0.448511 -1.0056313,1.005631 0,0.55712 0.4485115,1.005631 1.0056313,1.005631 h 11.05631 v -2.011262 z"
     id="path4227"
     class="ColorScheme-Accent" />
  <path
     id="path4247"
     d="m 9.960859,27.988281 c -0.557119,0 -1.005859,0.44874 -1.005859,1.00586 0,0.09473 0.030425,0.178848 0.054687,0.265625 0.11802,-0.424223 0.4883267,-0.740235 0.951172,-0.740235 H 21.0175 v -0.53125 z"
     style="color:#000000;clip-rule:nonzero;display:inline;overflow:visible;visibility:visible;opacity:0.3;isolation:auto;mix-blend-mode:normal;color-interpolation:sRGB;color-interpolation-filters:linearRGB;solid-color:#000000;solid-opacity:1;fill:#ffffff;fill-opacity:1;fill-rule:evenodd;stroke:none;stroke-width:1;stroke-linecap:butt;stroke-linejoin:miter;stroke-miterlimit:4;stroke-dasharray:none;stroke-dashoffset:0;stroke-opacity:1;marker:none;color-rendering:auto;image-rendering:auto;shape-rendering:auto;text-rendering:auto;enable-background:accumulate" />
  <circle
     style="color:#000000;clip-rule:nonzero;display:inline;overflow:visible;visibility:visible;isolation:auto;mix-blend-mode:normal;color-interpolation:sRGB;color-interpolation-filters:linearRGB;solid-color:#000000;solid-opacity:1;fill:#fafafa;fill-opacity:1;fill-rule:evenodd;stroke:none;stroke-width:1;stroke-linecap:butt;stroke-linejoin:miter;stroke-miterlimit:4;stroke-dasharray:none;stroke-dashoffset:0;stroke-opacity:1;marker:none;color-rendering:auto;image-rendering:auto;shape-rendering:auto;text-rendering:auto;enable-background:accumulate"
     id="circle4229"
     cx="19.971922"
     cy="28.938999"
     r="2.9119999" />
  <path
     style="color:#000000;clip-rule:nonzero;display:inline;overflow:visible;visibility:visible;opacity:0.15;isolation:auto;mix-blend-mode:normal;color-interpolation:sRGB;color-interpolation-filters:linearRGB;solid-color:#000000;solid-opacity:1;fill:#000000;fill-opacity:1;fill-rule:evenodd;stroke:none;stroke-width:1;stroke-linecap:butt;stroke-linejoin:miter;stroke-miterlimit:4;stroke-dasharray:none;stroke-dashoffset:0;stroke-opacity:1;marker:none;color-rendering:auto;image-rendering:auto;shape-rendering:auto;text-rendering:auto;enable-background:accumulate"
     d="m 34.876875,18.724609 a 2.9116116,2.9116116 0 0 1 -2.904297,2.751953 2.9116116,2.9116116 0 0 1 -2.904297,-2.699218 2.9116116,2.9116116 0 0 0 -0.0078,0.162109 2.9116116,2.9116116 0 0 0 2.912109,2.912109 2.9116116,2.9116116 0 0 0 2.91211,-2.912109 2.9116116,2.9116116 0 0 0 -0.0078,-0.214844 z"
     id="circle4231" />
  <path
     id="path4240"
     d="m 22.876875,28.724609 a 2.9116116,2.9116116 0 0 1 -2.904297,2.751953 2.9116116,2.9116116 0 0 1 -2.904297,-2.699218 2.9116116,2.9116116 0 0 0 -0.0078,0.162109 2.9116116,2.9116116 0 0 0 2.912109,2.912109 2.9116116,2.9116116 0 0 0 2.91211,-2.912109 2.9116116,2.9116116 0 0 0 -0.0078,-0.214844 z"
     style="color:#000000;clip-rule:nonzero;display:inline;overflow:visible;visibility:visible;opacity:0.15;isolation:auto;mix-blend-mode:normal;color-interpolation:sRGB;color-interpolation-filters:linearRGB;solid-color:#000000;solid-opacity:1;fill:#000000;fill-opacity:1;fill-rule:evenodd;stroke:none;stroke-width:1;stroke-linecap:butt;stroke-linejoin:miter;stroke-miterlimit:4;stroke-dasharray:none;stroke-dashoffset:0;stroke-opacity:1;marker:none;color-rendering:auto;image-rendering:auto;shape-rendering:auto;text-rendering:auto;enable-background:accumulate" />
</svg>
