<?xml version="1.0" encoding="UTF-8" standalone="no"?>
<!-- Created with Inkscape (http://www.inkscape.org/) -->

<svg
   width="48"
   height="48"
   viewBox="0 0 48 48"
   version="1.1"
   id="svg1"
   inkscape:version="1.4.2 (ebf0e940d0, 2025-05-08)"
   sodipodi:docname="youtube.svg"
   xmlns:inkscape="http://www.inkscape.org/namespaces/inkscape"
   xmlns:sodipodi="http://sodipodi.sourceforge.net/DTD/sodipodi-0.dtd"
   xmlns:xlink="http://www.w3.org/1999/xlink"
   xmlns="http://www.w3.org/2000/svg"
   xmlns:svg="http://www.w3.org/2000/svg">
  <sodipodi:namedview
     id="namedview1"
     pagecolor="#ffffff"
     bordercolor="#000000"
     borderopacity="0.25"
     inkscape:showpageshadow="2"
     inkscape:pageopacity="0.0"
     inkscape:pagecheckerboard="0"
     inkscape:deskcolor="#d1d1d1"
     inkscape:document-units="px"
     inkscape:zoom="16.583333"
     inkscape:cx="23.969849"
     inkscape:cy="24"
     inkscape:window-width="1920"
     inkscape:window-height="1010"
     inkscape:window-x="0"
     inkscape:window-y="0"
     inkscape:window-maximized="1"
     inkscape:current-layer="svg1" />
  <defs
     id="defs1">
    <linearGradient
       id="linearGradient5"
       inkscape:collect="always">
      <stop
         style="stop-color:#000000;stop-opacity:1;"
         offset="0"
         id="stop5" />
      <stop
         style="stop-color:#000000;stop-opacity:0;"
         offset="1"
         id="stop6" />
    </linearGradient>
    <linearGradient
       id="linearGradient3"
       inkscape:collect="always">
      <stop
         style="stop-color:#dee1e3;stop-opacity:1;"
         offset="0"
         id="stop3" />
      <stop
         style="stop-color:#eff0f1;stop-opacity:1;"
         offset="1"
         id="stop4" />
    </linearGradient>
    <linearGradient
       id="linearGradient1"
       inkscape:collect="always">
      <stop
         style="stop-color:#d21e1e;stop-opacity:1;"
         offset="0"
         id="stop1" />
      <stop
         style="stop-color:#e05e4c;stop-opacity:1;"
         offset="1"
         id="stop2" />
    </linearGradient>
    <linearGradient
       inkscape:collect="always"
       xlink:href="#linearGradient1"
       id="linearGradient2"
       x1="44"
       y1="38.000015"
       x2="4"
       y2="10"
       gradientUnits="userSpaceOnUse" />
    <linearGradient
       inkscape:collect="always"
       xlink:href="#linearGradient3"
       id="linearGradient4"
       x1="26.572865"
       y1="27.61809"
       x2="20"
       y2="16"
       gradientUnits="userSpaceOnUse" />
    <linearGradient
       inkscape:collect="always"
       xlink:href="#linearGradient5"
       id="linearGradient6"
       x1="27.315037"
       y1="20.876692"
       x2="41.814072"
       y2="36.884422"
       gradientUnits="userSpaceOnUse" />
  </defs>
  <path
     d="m 23.999928,10.000018 c 0,0 -12.109272,0.01777 -15.413185,0.841345 -1.773678,0.461163 -3.232255,1.75341 -3.719147,3.466342 C 3.998143,17.437108 4,23.983174 4,23.983174 c 0,0 -0.0018,6.541144 0.867596,9.637609 0.486894,1.71293 1.910691,3.076685 3.719147,3.537855 3.338689,0.856471 15.413185,0.841345 15.413185,0.841345 0,0 12.103107,-0.01788 15.407019,-0.841345 1.808462,-0.461162 3.234309,-1.793376 3.721202,-3.506306 0.86945,-3.129408 0.871708,-9.635504 0.871708,-9.635504 0,0 0.03226,-6.57972 -0.871708,-9.709123 -0.486893,-1.712932 -1.91274,-3.005166 -3.721202,-3.466342 C 36.103035,9.9848966 23.999928,10.000018 23.999928,10.000018 Z"
     style="fill:url(#linearGradient2);stroke-width:0.338476"
     id="path1"
     sodipodi:nodetypes="ccccccccccccc" />
  <path
     id="path2"
     style="opacity:0.15;fill:#000000;fill-opacity:1;stroke-width:0.338476"
     d="m 43.996094,23.402344 c -0.01633,1.443172 -0.124761,6.577785 -0.867188,9.25 -0.486893,1.71293 -1.914194,3.044697 -3.722656,3.505859 C 36.102338,36.981668 24,37 24,37 c 0,0 -12.075373,0.01467 -15.4140625,-0.841797 -1.808456,-0.46117 -3.231856,-1.824179 -3.71875,-3.537109 -0.7243876,-2.579999 -0.8435459,-7.55206 -0.8632813,-9.138672 -0.00395,0.318187 -0.00391,0.5 -0.00391,0.5 0,0 -0.00221,6.542207 0.8671875,9.638672 0.486894,1.71293 1.910294,3.075939 3.71875,3.537109 C 11.924627,38.014674 24,38 24,38 c 0,0 12.102338,-0.01833 15.40625,-0.841797 1.808462,-0.461162 3.235763,-1.792929 3.722656,-3.505859 C 43.998356,30.522936 44,24.017578 44,24.017578 c 0,0 4.4e-5,-0.227042 -0.0039,-0.615234 z" />
  <path
     id="path3"
     style="opacity:0.2;fill:url(#linearGradient6);fill-opacity:1"
     d="m 32,24 -8,2 -4,6 8.902344,5.931641 c 3.751756,-0.08989 8.595465,-0.297779 10.503906,-0.773438 1.808462,-0.461162 3.235763,-1.792929 3.722656,-3.505859 0.16695,-0.600903 0.301031,-1.325531 0.410156,-2.105469 z" />
  <path
     id="path4"
     d="M 20,16 V 32 L 32,24 Z"
     style="fill:url(#linearGradient4)" />
</svg>
