<?xml version="1.0" encoding="UTF-8" standalone="no"?>
<svg
   viewBox="0 0 48 48"
   version="1.1"
   id="svg4"
   sodipodi:docname="folder-steam.svg"
   inkscape:version="1.4.2 (ebf0e940d0, 2025-05-08)"
   xmlns:inkscape="http://www.inkscape.org/namespaces/inkscape"
   xmlns:sodipodi="http://sodipodi.sourceforge.net/DTD/sodipodi-0.dtd"
   xmlns="http://www.w3.org/2000/svg"
   xmlns:svg="http://www.w3.org/2000/svg">
  <sodipodi:namedview
     id="namedview4"
     pagecolor="#ffffff"
     bordercolor="#000000"
     borderopacity="0.25"
     inkscape:showpageshadow="2"
     inkscape:pageopacity="0.0"
     inkscape:pagecheckerboard="0"
     inkscape:deskcolor="#d1d1d1"
     inkscape:zoom="16.520833"
     inkscape:cx="24"
     inkscape:cy="24"
     inkscape:window-width="1920"
     inkscape:window-height="1007"
     inkscape:window-x="0"
     inkscape:window-y="0"
     inkscape:window-maximized="1"
     inkscape:current-layer="svg4" />
  <defs
     id="defs3051">
    <style
       type="text/css"
       id="current-color-scheme">
      .ColorScheme-Text {
        color:#232629;
      }
      .ColorScheme-Accent {
        color:#3daee9;
      }
      </style>
  </defs>
  <path
     style="fill:currentColor;fill-opacity:1;stroke:none"
     d="M 5,6 V 16 H 4 V 42 H 44 V 13 H 43 V 9 H 24 L 21,6 Z"
     class="ColorScheme-Accent"
     id="path1" />
  <path
     style="fill-opacity:0.33;fill-rule:evenodd"
     d="m 5,6 v 10 h 12 l 3,-3 H 43 V 9 H 24 L 21,6 Z"
     id="path2" />
  <path
     style="fill:#ffffff;fill-opacity:0.2;fill-rule:evenodd"
     d="M 21 6 L 23 10 L 43 10 L 43 9 L 24 9 L 21 6 z M 20 13 L 17 16 L 4 16 L 4 17 L 18 17 L 20 13 z "
     id="path3" />
  <path
     style="fill-opacity:0.2;fill-rule:evenodd"
     d="M 20 13 L 16 15 L 5 15 L 5 16 L 17 16 L 20 13 z M 4 41 L 4 42 C 4 42 44 42 44 42 L 44 41 L 4 41 z "
     class="ColorScheme-Text"
     id="path4" />
  <path
     id="path5"
     style="fill:currentColor;fill-opacity:0.6"
     class="ColorScheme-Text"
     d="m 28,21 c -2.198218,0 -4,1.801787 -4,4 0,0.788003 0.238384,1.521198 0.636719,2.142578 l 0.341797,3.048828 c -0.438865,0.161291 -0.831901,0.416592 -1.148438,0.75 l -1.853516,-0.71289 C 21.982542,30.151666 22,30.078298 22,30 c 0,-1.64863 -1.351248,-3 -3,-3 -1.648753,0 -3,1.35137 -3,3 0,1.648727 1.351247,3 3,3 0.852592,0 1.62215,-0.364438 2.169922,-0.941406 l 1.853516,0.71289 C 23.017458,32.848329 23,32.921702 23,33 c 0,1.648727 1.351248,3 3,3 1.648753,0 3,-1.351369 3,-3 0,-0.815385 -0.331653,-1.557179 -0.865234,-2.099609 L 29.9375,28.474609 C 31.159651,27.787699 32,26.493108 32,25 32,22.801787 30.198218,21 28,21 Z m 0,1 c 1.669104,0 3,1.330586 3,3 0,1.669413 -1.33053,3 -3,3 -1.669103,0 -3,-1.330587 -3,-3 0,-1.66905 1.330531,-3 3,-3 z m 0.05859,1 C 26.931217,22.966959 25.999516,23.872139 26,25 c 0,2.666666 4,2.666666 4,0 4.64e-4,-1.082086 -0.859784,-1.968298 -1.941406,-2 z M 19,28 c 1.025816,0 1.869227,0.787022 1.978516,1.785156 L 19.40625,29.085938 c -0.121466,-0.05617 -0.252969,-0.08738 -0.386719,-0.0918 -1.107938,-0.03835 -1.446058,1.486294 -0.425781,1.919921 l 1.574219,0.699219 C 19.838019,31.853431 19.436503,32 19,32 c -1.099168,0 -2,-0.900849 -2,-2 0,-1.099087 0.900832,-2 2,-2 z m 7,3 c 1.099169,0 2,0.900913 2,2 0,1.099087 -0.900831,2 -2,2 -1.025816,0 -1.869226,-0.786977 -1.978516,-1.785156 l 1.572266,0.699218 c 1.218931,0.542142 2.031431,-1.285984 0.8125,-1.828124 L 24.832031,31.386719 C 25.161981,31.146572 25.563497,31 26,31 Z" />
</svg>
