<?xml version="1.0" encoding="UTF-8" standalone="no"?>
<!-- Created with Inkscape (http://www.inkscape.org/) -->

<svg
   width="24"
   height="24"
   viewBox="0 0 24 24"
   version="1.1"
   id="svg1"
   inkscape:version="1.4 (e7c3feb100, 2024-10-09)"
   sodipodi:docname="thunderbird-panel.svg"
   xmlns:inkscape="http://www.inkscape.org/namespaces/inkscape"
   xmlns:sodipodi="http://sodipodi.sourceforge.net/DTD/sodipodi-0.dtd"
   xmlns="http://www.w3.org/2000/svg"
   xmlns:svg="http://www.w3.org/2000/svg">
  <sodipodi:namedview
     id="namedview1"
     pagecolor="#ffffff"
     bordercolor="#000000"
     borderopacity="0.25"
     inkscape:showpageshadow="2"
     inkscape:pageopacity="0.0"
     inkscape:pagecheckerboard="0"
     inkscape:deskcolor="#d1d1d1"
     inkscape:document-units="px"
     inkscape:zoom="24.041667"
     inkscape:cx="12"
     inkscape:cy="12"
     inkscape:window-width="1536"
     inkscape:window-height="792"
     inkscape:window-x="0"
     inkscape:window-y="0"
     inkscape:window-maximized="1"
     inkscape:current-layer="svg1"
     showguides="false" />
  <defs
     id="defs1">
    <style
       type="text/css"
       id="current-color-scheme">
        .ColorScheme-Text {
        color:#fcfcfc;
        }
        .ColorScheme-Background {
        color:#eff0f1;
        }
        .ColorScheme-Accent {
        color:#3daee9;
        }
        .ColorScheme-ButtonText {
        color:#31363b;
        }
     </style>
  </defs>
  <path
     d="M 15.429688,4 C 13.289685,4 11.010313,4.9403125 10.570313,6.5703125 9.8204445,6.8960128 9.3871947,7.3811436 9.2207031,7.8496094 8.7310944,8.1800781 8.3039178,8.5946907 7.9589844,9.0742188 7.9033296,7.4977812 7.7699848,6 7.4394531,6 7.2794531,6 7.2695312,6.1308594 7.2695312,6.1308594 7.2195316,6.5308594 7.12,6.77 7,7 6.72,7.53 6.3203125,7.7398438 6.0703125,8.0898438 5.5303125,8.8498437 5,10.05 5,11 4.8,10.57 4.8602344,9.7998435 4.7402344,9.3398438 c -0.01,-0.05 -0.079922,-0.1992188 -0.1699219,-0.1992188 -0.01,0 -0.031016,0.00953 -0.041016,0.019531 -0.09,0.05 -0.1492187,0.1800782 -0.1992188,0.3300782 C 4.1200781,10.200235 4,11.28 4,12 c 0,4.57 3.43,8 8,8 4.57,0 8,-3.38 8,-8 0,-1.69 -0.509687,-3.750625 -1.429688,-5.140625 0.380004,-0.07 0.780623,-0.07 1.140626,0 C 19.220936,6.289375 18.570937,6.1 17.710938,6 18.000934,5.59 18.43,5.03 19,5 18.05,4.19 16.969687,4 15.429688,4 Z m 0,1 c 0.710013,0 1.240901,0.038238 1.691406,0.1445312 -0.06489,0.091218 -0.175969,0.205814 -0.226563,0.2773438 l -0.972656,1.3769531 1.527344,0.1777344 0.287109,0.4355469 C 18.499095,8.5645503 19,10.51106 19,12 c 0,4.125051 -2.923071,7 -7,7 -4.0696353,0 -7,-2.930365 -7,-7 0,-0.218945 0.4999275,0.62724 1,1 V 11 C 6,10.422572 6.4539087,9.2790079 6.8847656,8.671875 V 8.669925 C 6.8881156,8.665265 6.9300406,8.61717 6.9355466,8.611331 6.9928892,9.8098229 7,11.192136 7,12 c 0,2.761424 2.2385763,5 5,5 2.761424,0 5,-2.238576 5,-5 0,-2.7614237 -2.238576,-5 -5,-5 -0.174356,0.00327 -0.348422,0.015654 -0.521484,0.037109 l 0.05664,-0.2070313 C 11.654537,6.3878258 12.078755,5.9273043 12.804688,5.5703125 13.53062,5.2133207 14.506152,5 15.429688,5 Z M 12,8 c 1.235157,0 2.338525,0.5596861 3.072266,1.4394531 L 12,12 8.9277344,9.4394531 C 9.6614752,8.5596861 10.764843,8 12,8 Z m -6.2929688,1.0878906 0.013672,0.056641 c -0.00245,-0.012243 -0.00736,-0.010112 -0.00977,-0.021484 -0.00339,-0.013748 -2.634e-4,-0.021235 -0.00391,-0.035156 z M 8.4921875,10.078125 12,13 15.507812,10.078125 C 15.821193,10.648705 16,11.303063 16,12 c 0,2.209139 -1.790861,4 -4,4 -2.209139,0 -4,-1.790861 -4,-4 0,-0.696937 0.1788067,-1.351295 0.4921875,-1.921875 z"
     style="fill:currentColor;stroke:none;stroke-linecap:square"
     class="ColorScheme-Text"
     id="path1" />
</svg>
