<?xml version="1.0" encoding="UTF-8" standalone="no"?>
<svg
   viewBox="0 0 32 32"
   version="1.1"
   id="svg4"
   sodipodi:docname="folder-steam.svg"
   inkscape:version="1.4.2 (ebf0e940d0, 2025-05-08)"
   xmlns:inkscape="http://www.inkscape.org/namespaces/inkscape"
   xmlns:sodipodi="http://sodipodi.sourceforge.net/DTD/sodipodi-0.dtd"
   xmlns="http://www.w3.org/2000/svg"
   xmlns:svg="http://www.w3.org/2000/svg">
  <sodipodi:namedview
     id="namedview4"
     pagecolor="#ffffff"
     bordercolor="#000000"
     borderopacity="0.25"
     inkscape:showpageshadow="2"
     inkscape:pageopacity="0.0"
     inkscape:pagecheckerboard="0"
     inkscape:deskcolor="#d1d1d1"
     inkscape:zoom="24.78125"
     inkscape:cx="16"
     inkscape:cy="16"
     inkscape:window-width="1920"
     inkscape:window-height="1007"
     inkscape:window-x="0"
     inkscape:window-y="0"
     inkscape:window-maximized="1"
     inkscape:current-layer="svg4" />
  <defs
     id="defs3051">
    <style
       type="text/css"
       id="current-color-scheme">.ColorScheme-Accent { color: #3daee9; } .ColorScheme-Text { color: #fcfcfc; } </style>
  </defs>
  <path
     style="fill:currentColor;fill-opacity:1;stroke:none"
     d="M 2 3 L 2 10 L 1 10 L 1 29 L 12 29 L 13 29 L 31 29 L 31 8 L 30 8 L 30 5 L 16 5 L 14 3 L 2 3 z "
     class="ColorScheme-Accent"
     id="path1" />
  <path
     style="fill-opacity:0.33;fill-rule:evenodd"
     d="m 2,3 0,7 9,0 L 13,8 30,8 30,5 16,5 14,3 2,3 Z"
     id="path2" />
  <path
     style="fill:#ffffff;fill-opacity:0.2;fill-rule:evenodd"
     d="M 14 3 L 15 6 L 30 6 L 30 5 L 16 5 L 14 3 z M 13 8 L 11 10 L 1 10 L 1 11 L 12 11 L 13 8 z "
     id="path3" />
  <path
     style="fill-opacity:0.2;fill-rule:evenodd"
     d="M 13 8 L 11 9 L 2 9 L 2 10 L 11 10 L 13 8 z M 1 28 L 1 29 L 31 29 L 31 28 L 1 28 z "
     class="ColorScheme-Text"
     id="path4" />
  <path
     id="path5"
     style="fill:currentColor;fill-opacity:0.6"
     class="ColorScheme-Text"
     d="m 20,12 c -2.198218,0 -4,1.801787 -4,4 0,0.788003 0.238384,1.521198 0.636719,2.142578 l 0.341797,3.048828 c -0.438865,0.161291 -0.831901,0.416592 -1.148438,0.75 l -1.853516,-0.71289 C 13.982542,21.151666 14,21.078298 14,21 c 0,-1.64863 -1.351248,-3 -3,-3 -1.6487529,0 -3,1.35137 -3,3 0,1.648727 1.3512471,3 3,3 0.852592,0 1.62215,-0.364438 2.169922,-0.941406 l 1.853516,0.71289 C 15.017458,23.848329 15,23.921702 15,24 c 0,1.648727 1.351248,3 3,3 1.648753,0 3,-1.351369 3,-3 0,-0.815385 -0.331653,-1.557179 -0.865234,-2.099609 L 21.9375,19.474609 C 23.159651,18.787699 24,17.493108 24,16 24,13.801787 22.198218,12 20,12 Z m 0,1 c 1.669104,0 3,1.330586 3,3 0,1.669413 -1.33053,3 -3,3 -1.669103,0 -3,-1.330587 -3,-3 0,-1.66905 1.330531,-3 3,-3 z m 0.05859,1 C 18.931217,13.966959 17.999516,14.872139 18,16 c 0,2.666666 4,2.666666 4,0 4.64e-4,-1.082086 -0.859784,-1.968298 -1.941406,-2 z M 11,19 c 1.025816,0 1.869227,0.787022 1.978516,1.785156 L 11.40625,20.085938 c -0.121466,-0.05617 -0.252969,-0.08738 -0.386719,-0.0918 -1.1079379,-0.03835 -1.4460575,1.486294 -0.425781,1.919921 l 1.574219,0.699219 C 11.838019,22.853431 11.436503,23 11,23 9.900832,23 9,22.099151 9,21 9,19.900913 9.900832,19 11,19 Z m 7,3 c 1.099169,0 2,0.900913 2,2 0,1.099087 -0.900831,2 -2,2 -1.025816,0 -1.869226,-0.786977 -1.978516,-1.785156 l 1.572266,0.699218 c 1.218931,0.542142 2.031431,-1.285984 0.8125,-1.828124 L 16.832031,22.386719 C 17.161981,22.146572 17.563497,22 18,22 Z" />
</svg>
