<?xml version="1.0" encoding="UTF-8" standalone="no"?>
<svg
   height="32"
   width="32"
   version="1.1"
   id="svg21"
   sodipodi:docname="yast-services-manager.svg"
   inkscape:version="1.4.2 (ebf0e940d0, 2025-05-08)"
   xmlns:inkscape="http://www.inkscape.org/namespaces/inkscape"
   xmlns:sodipodi="http://sodipodi.sourceforge.net/DTD/sodipodi-0.dtd"
   xmlns:xlink="http://www.w3.org/1999/xlink"
   xmlns="http://www.w3.org/2000/svg"
   xmlns:svg="http://www.w3.org/2000/svg">
  <defs
     id="defs21" />
  <sodipodi:namedview
     id="namedview21"
     pagecolor="#ffffff"
     bordercolor="#000000"
     borderopacity="0.25"
     inkscape:showpageshadow="2"
     inkscape:pageopacity="0.0"
     inkscape:pagecheckerboard="0"
     inkscape:deskcolor="#d1d1d1"
     inkscape:zoom="24.90625"
     inkscape:cx="16"
     inkscape:cy="16"
     inkscape:window-width="1920"
     inkscape:window-height="1011"
     inkscape:window-x="0"
     inkscape:window-y="0"
     inkscape:window-maximized="1"
     inkscape:current-layer="svg21" />
  <linearGradient
     id="a">
    <stop
       offset="0"
       stop-color="#232629"
       id="stop1" />
    <stop
       offset="1"
       stop-color="#232629"
       stop-opacity="0"
       id="stop2" />
  </linearGradient>
  <linearGradient
     id="g"
     gradientUnits="userSpaceOnUse"
     x1="16"
     x2="16"
     y1="17"
     y2="9">
    <stop
       offset="0"
       stop-color="#bdc3c7"
       id="stop3" />
    <stop
       offset="1"
       stop-color="#eff0f1"
       id="stop4" />
  </linearGradient>
  <linearGradient
     id="f"
     gradientUnits="userSpaceOnUse"
     x1="16"
     x2="16"
     y1="7"
     y2="9">
    <stop
       offset="0"
       stop-color="#afb0b3"
       id="stop5" />
    <stop
       offset="1"
       stop-color="#bdc3c7"
       id="stop6" />
  </linearGradient>
  <linearGradient
     id="d"
     gradientUnits="userSpaceOnUse"
     x1="10"
     x2="24"
     xlink:href="#a"
     y1="18"
     y2="25" />
  <radialGradient
     id="c"
     cx="6"
     cy="8"
     gradientTransform="matrix(0 2 -2 0 22 6)"
     gradientUnits="userSpaceOnUse"
     r="10.5"
     xlink:href="#a" />
  <linearGradient
     id="b"
     gradientUnits="userSpaceOnUse"
     x1="16"
     x2="16"
     y1="25"
     y2="19">
    <stop
       offset="0"
       stop-color="#6c5548"
       id="stop7" />
    <stop
       offset="1"
       stop-color="#997657"
       id="stop8" />
  </linearGradient>
  <linearGradient
     id="e"
     gradientUnits="userSpaceOnUse"
     x1="16"
     x2="16"
     y1="18"
     y2="17">
    <stop
       offset="0"
       stop-color="#b0b8b8"
       id="stop9" />
    <stop
       offset="1"
       stop-color="#cfd5d5"
       id="stop10" />
  </linearGradient>
  <linearGradient
     id="h"
     gradientUnits="userSpaceOnUse"
     x1="16"
     x2="16"
     y1="8"
     y2="5">
    <stop
       offset="0"
       stop-color="#909c9c"
       id="stop11" />
    <stop
       offset=".333"
       stop-color="#cfd5d5"
       id="stop12" />
    <stop
       offset="1"
       stop-color="#eff1f1"
       id="stop13" />
  </linearGradient>
  <path
     d="M6 19a.972.972 0 0 0-.621.217 1 1 0 0 0-.36.584A1.006 1.006 0 0 0 5 20a1.993 1.993 0 0 1-1.275 1.862 2.001 2.001 0 0 1-.385.108A2.001 2.001 0 0 1 3 22a.507.507 0 0 0-.17.028.609.609 0 0 0-.193.108.916.916 0 0 0-.178.18 1.715 1.715 0 0 0-.225.395 2.48 2.48 0 0 0-.111.33 3.133 3.133 0 0 0-.117.759A4.06 4.06 0 0 0 2 24v1h28v-1a4 4 0 0 0-.123-.959 2.872 2.872 0 0 0-.111-.33 2.097 2.097 0 0 0-.145-.277 1.137 1.137 0 0 0-.258-.297A.609.609 0 0 0 29 22a2 2 0 0 1-.34-.03 2.001 2.001 0 0 1-.566-.187A2 2 0 0 1 27 20a1.005 1.005 0 0 0-.045-.295.997.997 0 0 0-.19-.35 1 1 0 0 0-.312-.246A.997.997 0 0 0 26 19H16z"
     fill="url(#b)"
     id="path13" />
  <path
     d="M22 19l-1-1h-1l1 1zm-12 0l1-1h1l-1 1z"
     fill="#4d4d4d"
     id="path14" />
  <path
     d="M6 18h20l1 1H7z"
     fill="url(#c)"
     opacity=".2"
     id="path15" />
  <path
     d="M6 18l9 9h15v-3a4 4 0 0 0-.123-.959 2.098 2.098 0 0 0-.256-.607 1.137 1.137 0 0 0-.258-.297A.609.609 0 0 0 29 22a2.003 2.003 0 0 1-2-2 1.005 1.005 0 0 0-.547-.89A.997.997 0 0 0 26 19v-1z"
     fill="url(#d)"
     opacity=".2"
     id="path16" />
  <path
     d="M25.787 17H6.203c-.135.658-.203.328-.203 1h20c-.004-.672-.075-.342-.213-1z"
     fill="url(#e)"
     opacity=".998"
     id="path17" />
  <path
     d="M15 7v3h2V7z"
     fill="url(#f)"
     id="path18" />
  <path
     d="M16 9a10 10 0 0 0-9.797 8h19.584A10 10 0 0 0 16 9z"
     fill="url(#g)"
     opacity=".998"
     id="path19" />
  <path
     d="M16 5a2 2 0 0 0-2 2 2 1 0 0 0 1 .865 2 1 0 0 0 2 0A2 1 0 0 0 18 7a2 2 0 0 0-2-2z"
     fill="url(#h)"
     id="path20" />
  <path
     d="M2 25h28v2H2z"
     fill="#433a35"
     id="path21" />
</svg>
