<?xml version="1.0" encoding="UTF-8" standalone="no"?>
<svg
   height="32"
   width="32"
   version="1.1"
   id="svg26"
   sodipodi:docname="yast-vm-group.svg"
   inkscape:version="1.4.2 (ebf0e940d0, 2025-05-08)"
   xmlns:inkscape="http://www.inkscape.org/namespaces/inkscape"
   xmlns:sodipodi="http://sodipodi.sourceforge.net/DTD/sodipodi-0.dtd"
   xmlns="http://www.w3.org/2000/svg"
   xmlns:svg="http://www.w3.org/2000/svg">
  <defs
     id="defs26" />
  <sodipodi:namedview
     id="namedview26"
     pagecolor="#ffffff"
     bordercolor="#000000"
     borderopacity="0.25"
     inkscape:showpageshadow="2"
     inkscape:pageopacity="0.0"
     inkscape:pagecheckerboard="0"
     inkscape:deskcolor="#d1d1d1"
     inkscape:zoom="24.90625"
     inkscape:cx="16"
     inkscape:cy="16"
     inkscape:window-width="1920"
     inkscape:window-height="1011"
     inkscape:window-x="0"
     inkscape:window-y="0"
     inkscape:window-maximized="1"
     inkscape:current-layer="g20" />
  <linearGradient
     id="c"
     gradientUnits="userSpaceOnUse"
     x1="393.571"
     x2="407.571"
     y1="527.673"
     y2="541.673">
    <stop
       offset="0"
       stop-color="#292c30"
       id="stop1" />
    <stop
       offset="1"
       stop-opacity="0"
       id="stop2" />
  </linearGradient>
  <linearGradient
     id="a"
     gradientTransform="matrix(.66667 0 0 .63518 128.19 198.519)"
     gradientUnits="userSpaceOnUse"
     x2="0"
     y1="543.798"
     y2="502.655">
    <stop
       offset="0"
       stop-color="#c6cdd1"
       id="stop3" />
    <stop
       offset="1"
       stop-color="#e0e5e7"
       id="stop4" />
  </linearGradient>
  <linearGradient
     id="b"
     gradientUnits="userSpaceOnUse"
     x1="391.571"
     x2="406.571"
     y1="525.798"
     y2="540.798">
    <stop
       offset="0"
       id="stop5" />
    <stop
       offset="1"
       stop-opacity="0"
       id="stop6" />
  </linearGradient>
  <linearGradient
     id="h"
     gradientUnits="userSpaceOnUse"
     x1="358.571"
     x2="358.571"
     y1="519.798"
     y2="505.798">
    <stop
       offset="0"
       stop-color="#4d4d4d"
       id="stop7" />
    <stop
       offset="1"
       stop-color="#585858"
       id="stop8" />
  </linearGradient>
  <linearGradient
     id="g"
     gradientUnits="userSpaceOnUse"
     x1="356.571"
     x2="356.571"
     y1="519.798"
     y2="505.798">
    <stop
       offset="0"
       stop-color="#afb0b3"
       id="stop9" />
    <stop
       offset="1"
       stop-color="#bdc3c7"
       id="stop10" />
  </linearGradient>
  <linearGradient
     id="f"
     gradientUnits="userSpaceOnUse"
     x1="350.571"
     x2="350.571"
     y1="505.798"
     y2="519.798">
    <stop
       offset="0"
       stop-color="#7f8c8d"
       id="stop11" />
    <stop
       offset="1"
       stop-color="#afb0b3"
       id="stop12" />
  </linearGradient>
  <linearGradient
     id="e"
     gradientUnits="userSpaceOnUse"
     x1="353.571"
     x2="353.571"
     y1="505.798"
     y2="519.798">
    <stop
       offset="0"
       stop-color="#31363b"
       id="stop13" />
    <stop
       offset="1"
       stop-color="#4d4d4d"
       id="stop14" />
  </linearGradient>
  <linearGradient
     id="d"
     gradientTransform="matrix(2.85714 0 0 2.8 -885.347 -966.434)"
     gradientUnits="userSpaceOnUse"
     x1="428.371"
     x2="428.371"
     y1="530.798"
     y2="525.798">
    <stop
       offset="0"
       stop-color="#da4453"
       id="stop15" />
    <stop
       offset="1"
       stop-color="#fa4e5f"
       id="stop16" />
  </linearGradient>
  <g
     transform="translate(-384.571 -515.798)"
     id="g20">
    <path
       d="M384.571 517.798h32v28h-32z"
       fill="url(#a)"
       id="path16" />
    <path
       d="M385.571 543.798l30-20 1 1v21h-29z"
       fill="url(#b)"
       fill-rule="evenodd"
       opacity=".2"
       id="path17" />
    <path
       d="M384.571 517.798h32v4h-32z"
       fill="#566069"
       id="path18" />
    <path
       d="M384.571 521.798h32v1h-32z"
       fill="#79b03f"
       id="path19" />
    <path
       d="M385.571 523.798h30v20h-30z"
       fill="#fff"
       id="path20" />
    <rect
       fill="#eff0f1"
       height="2"
       rx="1"
       width="2"
       x="413.571"
       y="518.798"
       id="rect20" />
  </g>
  <path
     d="M396.513 535.673l-1.177-8 3.235 3.235 6.177-3.235 1.823 1.824 4.06-1.824 7.94 7.941v6.059h-16.058z"
     fill="url(#c)"
     fill-opacity=".2"
     transform="translate(-387.571 -513.673)"
     id="path21" />
  <path
     d="M331.571 505.798h3l3.5 10 3.5-10h3l-5 14h-3z"
     fill="url(#d)"
     transform="matrix(.58824 0 0 .57143 -189.042 -275.027)"
     id="path22" />
  <path
     d="M342.571 519.798l5-14h3l-5 14zm10 0l5-14h3l-5 14z"
     fill="url(#e)"
     transform="matrix(.58824 0 0 .57143 -189.042 -275.027)"
     id="path23" />
  <path
     d="M339.571 519.798l5-14h3l-5 14zm10 0l5-14h3l-5 14z"
     fill="url(#f)"
     transform="matrix(.58824 0 0 .57143 -189.042 -275.027)"
     id="path24" />
  <path
     d="M352.571 519.798h-3l-5-14h3zm10 0h-3l-5-14h3z"
     fill="url(#g)"
     transform="matrix(.58824 0 0 .57143 -189.042 -275.027)"
     id="path25" />
  <path
     d="M347.571 505.798l5 14h3l-5-14zm10 0l5 14h3l-5-14z"
     fill="url(#h)"
     transform="matrix(.58824 0 0 .57143 -189.042 -275.027)"
     id="path26" />
</svg>
