<?xml version="1.0" encoding="UTF-8" standalone="no"?>
<svg
   height="32"
   width="32"
   version="1.1"
   id="svg13"
   sodipodi:docname="yast-support.svg"
   inkscape:version="1.4.2 (ebf0e940d0, 2025-05-08)"
   xmlns:inkscape="http://www.inkscape.org/namespaces/inkscape"
   xmlns:sodipodi="http://sodipodi.sourceforge.net/DTD/sodipodi-0.dtd"
   xmlns="http://www.w3.org/2000/svg"
   xmlns:svg="http://www.w3.org/2000/svg">
  <defs
     id="defs13" />
  <sodipodi:namedview
     id="namedview13"
     pagecolor="#ffffff"
     bordercolor="#000000"
     borderopacity="0.25"
     inkscape:showpageshadow="2"
     inkscape:pageopacity="0.0"
     inkscape:pagecheckerboard="0"
     inkscape:deskcolor="#d1d1d1"
     inkscape:zoom="24.90625"
     inkscape:cx="16"
     inkscape:cy="16"
     inkscape:window-width="1920"
     inkscape:window-height="1011"
     inkscape:window-x="0"
     inkscape:window-y="0"
     inkscape:window-maximized="1"
     inkscape:current-layer="svg13" />
  <linearGradient
     id="g"
     gradientTransform="matrix(0.35,0,0,0.70968,-120.169,-368.533)"
     gradientUnits="userSpaceOnUse"
     x1="300.483"
     x2="300.483"
     y1="543.25098"
     y2="512.25098">
    <stop
       offset="0"
       stop-color="#73ba25"
       id="stop3-3" />
    <stop
       offset="1"
       stop-color="#81c13b"
       stop-opacity=".85"
       id="stop4-6" />
  </linearGradient>
  <linearGradient
     id="c"
     gradientUnits="userSpaceOnUse"
     x1="7"
     x2="19.6"
     y1="7"
     y2="19.6">
    <stop
       offset="0"
       stop-color="#292c2f"
       id="stop1" />
    <stop
       offset="1"
       stop-opacity="0"
       id="stop2" />
  </linearGradient>
  <linearGradient
     id="a"
     gradientUnits="userSpaceOnUse"
     x1="-277.599"
     x2="-277.599"
     y1="-329.66"
     y2="-349.26">
    <stop
       offset="0"
       stop-color="#c6cdd1"
       id="stop3" />
    <stop
       offset="1"
       stop-color="#e0e5e7"
       id="stop4" />
  </linearGradient>
  <linearGradient
     id="d"
     gradientTransform="matrix(.69856 0 0 .70511 -299.466 -353.1)"
     gradientUnits="userSpaceOnUse"
     x1="16"
     x2="16"
     y1="25"
     y2="7">
    <stop
       offset="0"
       stop-color="#cea476"
       id="stop7" />
    <stop
       offset="1"
       stop-color="#dab58b"
       id="stop8" />
  </linearGradient>
  <path
     d="M16 2A14 14 0 0 0 2 16a14 14 0 0 0 14 14 14 14 0 0 0 14-14A14 14 0 0 0 16 2zm0 7a7 7 0 0 1 7 7 7 7 0 0 1-7 7 7 7 0 0 1-7-7 7 7 0 0 1 7-7z"
     fill="url(#a)"
     id="path8" />
  <path
     d="M10.553 3.104a14 14 0 0 0-7.758 8.294l6.353 3.176A7 7 0 0 1 13.7 9.398zm10.888.013l-3.14 6.281a7 7 0 0 1 4.545 5.178l6.36-3.178a14 14 0 0 0-7.765-8.28zM9.154 17.424l-6.36 3.178a14 14 0 0 0 7.765 8.28l3.14-6.28a7 7 0 0 1-4.545-5.178zm13.698.002a7 7 0 0 1-4.551 5.176l3.146 6.294a14 14 0 0 0 7.758-8.294z"
     fill="url(#g)"
     id="path9" />
  <path
     d="M29.979 15.414A14 14 0 0 1 16 29 14 14 0 0 1 2.021 15.586 14 14 0 0 0 2 16a14 14 0 0 0 14 14 14 14 0 0 0 14-14 14 14 0 0 0-.021-.586z"
     fill="#99a1a7"
     id="path10" />
  <path
     d="M7.707 6.293L7 7c-1.203 1.203-2.37 2.487-3.088 4.03C3.194 12.571 2.922 14.3 3 16a13.673 13.673 0 0 0 4 9l-.707.707 1.902 1.902A14 14 0 0 0 16 30a14 14 0 0 0 10.568-4.846l-.861-.861-4.107-4.107A7 7 0 0 1 16 23a7 7 0 0 1-7-7 7 7 0 0 1 2.814-5.6z"
     fill="url(#c)"
     opacity=".2"
     id="path11" />
  <path
     d="M7 25c-2.51-2.265-4-5.62-4-9s1.49-6.735 4-9m18 18c2.51-2.265 4-5.62 4-9s-1.49-6.735-4-9"
     fill="none"
     stroke="url(#d)"
     stroke-linecap="round"
     stroke-miterlimit="0"
     id="path12" />
  <path
     d="M26 7a1 1 0 0 1-1 1 1 1 0 0 1-1-1 1 1 0 0 1 1-1 1 1 0 0 1 1 1zm0 18a1 1 0 0 1-1 1 1 1 0 0 1-1-1 1 1 0 0 1 1-1 1 1 0 0 1 1 1zM8 25a1 1 0 0 1-1 1 1 1 0 0 1-1-1 1 1 0 0 1 1-1 1 1 0 0 1 1 1zM8 7a1 1 0 0 1-1 1 1 1 0 0 1-1-1 1 1 0 0 1 1-1 1 1 0 0 1 1 1z"
     id="path13"
     style="fill:#3e6515;fill-opacity:0.98823529" />
</svg>
