<?xml version="1.0" encoding="UTF-8" standalone="no"?>
<svg
   height="32"
   width="32"
   version="1.1"
   id="svg21"
   sodipodi:docname="yast-apparmor.svg"
   inkscape:version="1.4.2 (ebf0e940d0, 2025-05-08)"
   xmlns:inkscape="http://www.inkscape.org/namespaces/inkscape"
   xmlns:sodipodi="http://sodipodi.sourceforge.net/DTD/sodipodi-0.dtd"
   xmlns:xlink="http://www.w3.org/1999/xlink"
   xmlns="http://www.w3.org/2000/svg"
   xmlns:svg="http://www.w3.org/2000/svg">
  <defs
     id="defs21" />
  <sodipodi:namedview
     id="namedview21"
     pagecolor="#ffffff"
     bordercolor="#000000"
     borderopacity="0.25"
     inkscape:showpageshadow="2"
     inkscape:pageopacity="0.0"
     inkscape:pagecheckerboard="0"
     inkscape:deskcolor="#d1d1d1"
     inkscape:zoom="24.90625"
     inkscape:cx="16"
     inkscape:cy="16"
     inkscape:window-width="1920"
     inkscape:window-height="1011"
     inkscape:window-x="0"
     inkscape:window-y="0"
     inkscape:window-maximized="1"
     inkscape:current-layer="svg21" />
  <linearGradient
     id="m"
     gradientUnits="userSpaceOnUse"
     x1="20.308"
     x2="24.077"
     xlink:href="#a"
     y1="19.231"
     y2="23" />
  <linearGradient
     id="j"
     gradientUnits="userSpaceOnUse"
     x1="32"
     x2="32"
     xlink:href="#b"
     y1="54"
     y2="9" />
  <linearGradient
     id="k"
     gradientUnits="userSpaceOnUse"
     x1="32"
     x2="32"
     xlink:href="#c"
     y1="54"
     y2="9" />
  <linearGradient
     id="l"
     gradientUnits="userSpaceOnUse"
     x1="37"
     x2="37"
     y1="46"
     y2="38">
    <stop
       offset="0"
       stop-color="#be4434"
       id="stop1" />
    <stop
       offset=".25"
       stop-color="#c44837"
       id="stop2" />
    <stop
       offset="1"
       stop-color="#cb4c3b"
       id="stop3" />
  </linearGradient>
  <linearGradient
     id="i"
     gradientUnits="userSpaceOnUse"
     x1="12.769"
     x2="25.692"
     xlink:href="#a"
     y1="7.385"
     y2="20.308" />
  <linearGradient
     id="h"
     gradientUnits="userSpaceOnUse"
     x1="9.538"
     x2="23"
     xlink:href="#a"
     y1="10.615"
     y2="24.077" />
  <linearGradient
     id="g"
     gradientUnits="userSpaceOnUse"
     x1="28.385"
     x2="28.385"
     xlink:href="#b"
     y1="27.846"
     y2="3.615" />
  <linearGradient
     id="f"
     gradientUnits="userSpaceOnUse"
     x1="28.385"
     x2="28.385"
     xlink:href="#c"
     y1="27.846"
     y2="3.615" />
  <linearGradient
     id="e"
     gradientUnits="userSpaceOnUse"
     x1="21.923"
     x2="23.538"
     xlink:href="#a"
     y1="22.462"
     y2="24.077" />
  <linearGradient
     id="d"
     gradientUnits="userSpaceOnUse"
     x1="16"
     x2="16"
     y1="30"
     y2="2">
    <stop
       offset="0"
       stop-color="#173f4f"
       id="stop4" />
    <stop
       offset="1"
       stop-color="#2f5361"
       id="stop5" />
  </linearGradient>
  <linearGradient
     id="c">
    <stop
       offset="0"
       stop-color="#bf4231"
       id="stop6" />
    <stop
       offset="1"
       stop-color="#e05e4c"
       id="stop7" />
  </linearGradient>
  <linearGradient
     id="b">
    <stop
       offset="0"
       stop-color="#eff0f1"
       id="stop8" />
    <stop
       offset="1"
       stop-color="#fcfcfc"
       id="stop9" />
  </linearGradient>
  <linearGradient
     id="a">
    <stop
       offset="0"
       stop-color="#292c2f"
       id="stop10" />
    <stop
       offset="1"
       stop-opacity="0"
       id="stop11" />
  </linearGradient>
  <path
     d="M16 2C12.59 3.806 9.18 4.544 5.77 5.23v13.463c0 3.77 5.526 8.918 10.23 11.307 4.704-2.389 10.23-7.537 10.23-11.307V5.231C22.82 4.544 19.41 3.806 16 2z"
     fill="url(#d)"
     id="path11" />
  <g
     stroke-width=".538"
     id="g16">
    <path
       d="M24.615 6.308L10.451 23.703l6.036 6.035c4.59-2.485 9.744-7.404 9.744-11.045V7.923z"
       fill="url(#e)"
       opacity=".2"
       id="path12" />
    <path
       d="M20.752 5.419l-9.487 18.974c1.473 1.373 3.127 2.636 4.735 3.453 3.98-2.021 8.615-6.503 8.615-9.692V6.308a61.098 61.098 0 0 1-3.863-.889z"
       fill="url(#f)"
       id="path13" />
    <path
       d="M16 3.615c-2.886 1.529-5.73 2.112-8.615 2.693v11.846c0 1.9 1.707 4.215 3.88 6.24l9.487-18.975c-1.58-.426-3.16-.96-4.752-1.804z"
       fill="url(#g)"
       id="path14" />
    <path
       d="M11.692 6.308l-4.307 8.615 11.273 11.273a22.917 22.917 0 0 0 2.348-1.96l-.698-.698L16.538 16z"
       fill="url(#h)"
       opacity=".2"
       id="path15" />
    <path
       d="M13.846 6.308l6.462 17.23 4.307-8.615h-2.153z"
       fill="url(#i)"
       opacity=".2"
       id="path16" />
  </g>
  <g
     stroke-width="1.857"
     id="g19">
    <path
       d="M24 14l16 32 8-16h-4l-1 2h-6l-9-18zm14 20h4l-2 4z"
       fill="url(#j)"
       transform="translate(-1.23 -1.23) scale(.53846)"
       id="path17" />
    <path
       d="M24 14l-8 16h4l1-2h6l8.5 17h4zm0 8l2 4h-4z"
       fill="url(#k)"
       transform="translate(-1.23 -1.23) scale(.53846)"
       id="path18" />
    <path
       d="M32 38l4 8h4l-4-8z"
       fill="url(#l)"
       transform="translate(-1.23 -1.23) scale(.53846)"
       id="path19" />
  </g>
  <path
     d="M24.615 14.923l-4.307 8.615 1.947 1.948c2.161-2.093 3.78-4.428 3.959-6.428a4.38 4.38 0 0 0 .017-.365v-2.155z"
     fill="url(#m)"
     opacity=".2"
     id="path20" />
  <path
     d="M5.77 17.693v1c0 3.77 5.526 8.918 10.23 11.307 4.704-2.389 10.23-7.537 10.23-11.307v-1c0 3.77-5.526 8.918-10.23 11.307-4.704-2.389-10.23-7.537-10.23-11.307z"
     fill="#232629"
     opacity=".2"
     id="path21" />
</svg>
