<?xml version="1.0" encoding="UTF-8" standalone="no"?>
<svg
   height="32"
   width="32"
   version="1.1"
   id="svg11"
   sodipodi:docname="yast-sudo.svg"
   inkscape:version="1.4.2 (ebf0e940d0, 2025-05-08)"
   xmlns:inkscape="http://www.inkscape.org/namespaces/inkscape"
   xmlns:sodipodi="http://sodipodi.sourceforge.net/DTD/sodipodi-0.dtd"
   xmlns:xlink="http://www.w3.org/1999/xlink"
   xmlns="http://www.w3.org/2000/svg"
   xmlns:svg="http://www.w3.org/2000/svg">
  <defs
     id="defs11" />
  <sodipodi:namedview
     id="namedview11"
     pagecolor="#ffffff"
     bordercolor="#000000"
     borderopacity="0.25"
     inkscape:showpageshadow="2"
     inkscape:pageopacity="0.0"
     inkscape:pagecheckerboard="0"
     inkscape:deskcolor="#d1d1d1"
     inkscape:zoom="24.90625"
     inkscape:cx="16"
     inkscape:cy="16"
     inkscape:window-width="1920"
     inkscape:window-height="1011"
     inkscape:window-x="0"
     inkscape:window-y="0"
     inkscape:window-maximized="1"
     inkscape:current-layer="svg11" />
  <linearGradient
     id="b"
     gradientUnits="userSpaceOnUse"
     x2="0"
     y1="545.798"
     y2="517.798">
    <stop
       offset="0"
       stop-color="#197cf1"
       id="stop1" />
    <stop
       offset="1"
       stop-color="#20bcfa"
       id="stop2" />
  </linearGradient>
  <linearGradient
     id="a">
    <stop
       offset="0"
       stop-color="#7cbaf8"
       id="stop3" />
    <stop
       offset="1"
       stop-color="#f4fcff"
       id="stop4" />
  </linearGradient>
  <linearGradient
     id="d"
     gradientUnits="userSpaceOnUse"
     x2="0"
     xlink:href="#a"
     y1="23"
     y2="9" />
  <linearGradient
     id="e"
     gradientTransform="matrix(.5 0 0 1 395.071 515.798)"
     gradientUnits="userSpaceOnUse"
     x1="-21"
     x2="-21"
     xlink:href="#a"
     y1="23"
     y2="9" />
  <linearGradient
     id="c"
     gradientUnits="userSpaceOnUse"
     x1="9"
     x2="23"
     y1="9"
     y2="23">
    <stop
       offset="0"
       stop-color="#292c2f"
       id="stop5" />
    <stop
       offset="1"
       stop-opacity="0"
       id="stop6" />
  </linearGradient>
  <g
     transform="translate(-384.571 -515.798)"
     id="g11">
    <rect
       fill="url(#b)"
       height="28"
       rx="14"
       width="28"
       x="386.571"
       y="517.798"
       id="rect6" />
    <path
       d="M16 8.996L14 10l-1 2 .285 2.715L16 16l-3 1-3 3-1 3 7 7c6.09 0 11.23-3.856 13.166-9.264L18.215 9.786z"
       fill="url(#c)"
       opacity=".2"
       transform="translate(384.571 515.798)"
       id="path6" />
    <path
       d="M16 9c-1.939 0-3.5 1.561-3.5 3.5S14.061 16 16 16s3.5-1.561 3.5-3.5S17.939 9 16 9zm0 7c-3.878 0-7 3.122-7 7h8v-1h-6.91A5.98 5.98 0 0 1 16 17c.359 0 .707.038 1.045.104l.26-.973A6.654 6.654 0 0 0 16 16zm0-6c1.385 0 2.5 1.115 2.5 2.5S17.385 15 16 15s-2.5-1.115-2.5-2.5S14.615 10 16 10z"
       fill="url(#d)"
       transform="translate(384.571 515.798)"
       id="path7" />
    <g
       fill="url(#e)"
       stroke-width=".707"
       id="g10">
      <path
         d="M406.571 532.798v6h1v-6z"
         id="path8" />
      <path
         d="M402.571 537.798h6v-1h-6zm0-3h6v-1h-6z"
         id="path9" />
      <path
         d="M403.571 532.798v6h1v-6z"
         id="path10" />
    </g>
  </g>
  <path
     d="M29.979 15.414A14 14 0 0 1 16 29 14 14 0 0 1 2.021 15.586 14 14 0 0 0 2 16a14 14 0 0 0 14 14 14 14 0 0 0 14-14 14 14 0 0 0-.021-.586z"
     fill="#292c2f"
     fill-rule="evenodd"
     opacity=".2"
     id="path11" />
</svg>
