<?xml version="1.0" encoding="UTF-8" standalone="no"?>
<svg
   height="32"
   width="32"
   version="1.1"
   id="svg13"
   sodipodi:docname="yast-host.svg"
   inkscape:version="1.4.2 (ebf0e940d0, 2025-05-08)"
   xmlns:inkscape="http://www.inkscape.org/namespaces/inkscape"
   xmlns:sodipodi="http://sodipodi.sourceforge.net/DTD/sodipodi-0.dtd"
   xmlns:xlink="http://www.w3.org/1999/xlink"
   xmlns="http://www.w3.org/2000/svg"
   xmlns:svg="http://www.w3.org/2000/svg">
  <defs
     id="defs13" />
  <sodipodi:namedview
     id="namedview13"
     pagecolor="#ffffff"
     bordercolor="#000000"
     borderopacity="0.25"
     inkscape:showpageshadow="2"
     inkscape:pageopacity="0.0"
     inkscape:pagecheckerboard="0"
     inkscape:deskcolor="#d1d1d1"
     inkscape:zoom="24.90625"
     inkscape:cx="16"
     inkscape:cy="16"
     inkscape:window-width="1920"
     inkscape:window-height="1011"
     inkscape:window-x="0"
     inkscape:window-y="0"
     inkscape:window-maximized="1"
     inkscape:current-layer="svg13" />
  <linearGradient
     id="b"
     gradientTransform="matrix(.7 0 0 .7 -.7 -1.1)"
     gradientUnits="userSpaceOnUse"
     x2="0"
     y1="44"
     y2="4">
    <stop
       offset="0"
       stop-color="#1d1e1e"
       id="stop1" />
    <stop
       offset="1"
       stop-color="#44484c"
       id="stop2" />
  </linearGradient>
  <linearGradient
     id="c"
     x1="6"
     x2="6"
     xlink:href="#a"
     y1="5"
     y2="4" />
  <linearGradient
     id="a"
     gradientUnits="userSpaceOnUse"
     x2="0"
     y1="507.8"
     y2="506.8">
    <stop
       offset="0"
       stop-color="#3da103"
       id="stop3" />
    <stop
       offset="1"
       stop-color="#7ddf07"
       id="stop4" />
  </linearGradient>
  <linearGradient
     id="d"
     x1="6"
     x2="6"
     xlink:href="#a"
     y1="16"
     y2="15" />
  <linearGradient
     id="e"
     x1="6"
     x2="6"
     xlink:href="#a"
     y1="27"
     y2="26" />
  <linearGradient
     id="f"
     gradientUnits="userSpaceOnUse"
     x1="5"
     x2="18"
     y1="12"
     y2="25">
    <stop
       offset="0"
       stop-color="#292c2f"
       id="stop5" />
    <stop
       offset="1"
       stop-opacity="0"
       id="stop6" />
  </linearGradient>
  <path
     d="M3 7h26v17H3z"
     fill="#111213"
     id="path6" />
  <path
     d="M3 2v28h26V2zm1 6h24v4H4zm0 11h24v4H4z"
     fill="url(#b)"
     id="path7" />
  <g
     stroke-width=".7"
     id="g10">
    <path
       d="M5 4h2v1H5z"
       fill="url(#c)"
       id="path8" />
    <path
       d="M5 15h2v1H5z"
       fill="url(#d)"
       id="path9" />
    <path
       d="M5 26h2v1H5z"
       fill="url(#e)"
       id="path10" />
  </g>
  <path
     d="M4 12l7 7h17v4H15l7 7h7V13l-1-1z"
     fill="url(#f)"
     fill-rule="evenodd"
     opacity=".4"
     id="path11" />
  <path
     d="M3 29h26v1H3z"
     opacity=".2"
     id="path12" />
</svg>
