<?xml version="1.0" encoding="UTF-8" standalone="no"?>
<svg
   width="32"
   height="32"
   version="1.1"
   id="svg35"
   sodipodi:docname="application-x-hwp.svg"
   inkscape:version="1.2.2 (1:1.2.2+202305151914+b0a8486541)"
   xmlns:inkscape="http://www.inkscape.org/namespaces/inkscape"
   xmlns:sodipodi="http://sodipodi.sourceforge.net/DTD/sodipodi-0.dtd"
   xmlns:xlink="http://www.w3.org/1999/xlink"
   xmlns="http://www.w3.org/2000/svg"
   xmlns:svg="http://www.w3.org/2000/svg">
  <sodipodi:namedview
     id="namedview37"
     pagecolor="#ffffff"
     bordercolor="#000000"
     borderopacity="0.25"
     inkscape:showpageshadow="2"
     inkscape:pageopacity="0.0"
     inkscape:pagecheckerboard="0"
     inkscape:deskcolor="#d1d1d1"
     showgrid="false"
     inkscape:zoom="25.1875"
     inkscape:cx="16"
     inkscape:cy="16"
     inkscape:window-width="1920"
     inkscape:window-height="1008"
     inkscape:window-x="0"
     inkscape:window-y="0"
     inkscape:window-maximized="1"
     inkscape:current-layer="svg35" />
  <defs
     id="defs13">
    <linearGradient
       id="a"
       y1="392.36"
       y2="365.36"
       gradientUnits="userSpaceOnUse"
       x2="0"
       gradientTransform="translate(309.57 152.44)">
      <stop
         stop-color="#ffffff"
         stop-opacity="0"
         id="stop2" />
      <stop
         offset="1"
         stop-color="#ffffff"
         stop-opacity=".2"
         id="stop4" />
    </linearGradient>
    <linearGradient
       id="b"
       y1="17"
       x1="47"
       y2="24"
       gradientUnits="userSpaceOnUse"
       x2="54"
       gradientTransform="translate(357.57 507.8)">
      <stop
         stop-color="#060606"
         id="stop7" />
      <stop
         offset="1"
         stop-opacity="0"
         id="stop9" />
    </linearGradient>
    <path
       id="c"
       d="m389.57 545.8v-28h15l7 7v21h-14z" />
  </defs>
  <g
     transform="translate(-384.57-515.8)"
     id="g33">
    <g
       color-rendering="auto"
       color-interpolation-filters="linearRGB"
       shape-rendering="auto"
       image-rendering="auto"
       text-rendering="auto"
       color-interpolation="sRGB"
       color="#000000"
       id="g25">
      <use
         fill="#1bb2fb"
         xlink:href="#c"
         id="use15" />
      <g
         transform="scale(1-1)"
         id="g21">
        <rect
           opacity=".5"
           x="389.57"
           y="-518.8"
           width="15"
           fill="#ffffff"
           height="1"
           id="rect17" />
        <rect
           opacity=".25"
           x="389.57"
           y="-545.8"
           width="22"
           height="1"
           id="rect19" />
      </g>
      <path
         opacity=".5"
         fill="#ffffff"
         fill-rule="evenodd"
         d="m411.57 524.8l-7-7v7z"
         id="path23" />
    </g>
    <path
       opacity=".2"
       fill="url(#b)"
       fill-rule="evenodd"
       d="m404.57 524.8l7 7v-7z"
       id="path27" />
    <path
       id="rect318"
       style="opacity:0.75;fill:#ffffff"
       d="m 399.57,527.8 v 1 h -4 v 1 h 9 v -1 h -4 v -1 z m 0.5,3 a 3.5,3.5 0 0 0 -3.5,3.5 3.5,3.5 0 0 0 3.5,3.5 3.5,3.5 0 0 0 3.5,-3.5 3.5,3.5 0 0 0 -3.5,-3.5 z m 0,1 a 2.5,2.5 0 0 1 2.5,2.5 2.5,2.5 0 0 1 -2.5,2.5 2.5,2.5 0 0 1 -2.5,-2.5 2.5,2.5 0 0 1 2.5,-2.5 z m -0.5,7 v 1 h 1 v -1 z m -4,1 v 2 h 9 v -1 h -8 v -1 z" />
    <use
       fill="url(#a)"
       xlink:href="#c"
       id="use31" />
  </g>
</svg>
