<?xml version="1.0" encoding="UTF-8" standalone="no"?>
<!-- Created with Inkscape (http://www.inkscape.org/) -->

<svg
   width="22"
   height="22"
   viewBox="0 0 22 22"
   version="1.1"
   id="svg1559"
   inkscape:version="1.2.2 (1:1.2.2+202305151914+b0a8486541)"
   sodipodi:docname="application-x-hwp.svg"
   xmlns:inkscape="http://www.inkscape.org/namespaces/inkscape"
   xmlns:sodipodi="http://sodipodi.sourceforge.net/DTD/sodipodi-0.dtd"
   xmlns="http://www.w3.org/2000/svg"
   xmlns:svg="http://www.w3.org/2000/svg">
  <sodipodi:namedview
     id="namedview1561"
     pagecolor="#ffffff"
     bordercolor="#000000"
     borderopacity="0.25"
     inkscape:showpageshadow="2"
     inkscape:pageopacity="0.0"
     inkscape:pagecheckerboard="0"
     inkscape:deskcolor="#d1d1d1"
     inkscape:document-units="px"
     showgrid="false"
     inkscape:zoom="36.636364"
     inkscape:cx="10.986352"
     inkscape:cy="11"
     inkscape:window-width="1920"
     inkscape:window-height="1008"
     inkscape:window-x="0"
     inkscape:window-y="0"
     inkscape:window-maximized="1"
     inkscape:current-layer="svg1559" />
  <defs
     id="defs1556" />
  <path
     id="rect1821"
     style="fill:#3daee9;stroke-width:0.806229"
     d="M 10,1 V 3 H 4 V 4 H 16.999999 V 3 H 11 V 1 Z m 0.5,5 A 4.5,4.5 0 0 0 6,10.5 4.5,4.5 0 0 0 10.5,15 4.5,4.5 0 0 0 14.999999,10.5 4.5,4.5 0 0 0 10.5,6 Z m 0,1 A 3.5,3.5 0 0 1 14,10.5 3.5,3.5 0 0 1 10.5,14 3.5,3.5 0 0 1 7,10.5 3.5,3.5 0 0 1 10.5,7 Z M 10,17 v 1 h 1 v -1 z m -6,1 v 3 H 16.999999 V 20 H 5.0000001 v -2 z" />
</svg>
