<?xml version="1.0" encoding="UTF-8" standalone="no"?>
<!-- Created with Inkscape (http://www.inkscape.org/) -->

<svg
   width="22"
   height="22"
   viewBox="0 0 22 22"
   version="1.1"
   id="svg1559"
   inkscape:version="1.2.2 (1:1.2.2+202305151914+b0a8486541)"
   sodipodi:docname="application-x-alpm-package.svg"
   xmlns:inkscape="http://www.inkscape.org/namespaces/inkscape"
   xmlns:sodipodi="http://sodipodi.sourceforge.net/DTD/sodipodi-0.dtd"
   xmlns="http://www.w3.org/2000/svg"
   xmlns:svg="http://www.w3.org/2000/svg">
  <sodipodi:namedview
     id="namedview1561"
     pagecolor="#ffffff"
     bordercolor="#000000"
     borderopacity="0.25"
     inkscape:showpageshadow="2"
     inkscape:pageopacity="0.0"
     inkscape:pagecheckerboard="0"
     inkscape:deskcolor="#d1d1d1"
     inkscape:document-units="px"
     showgrid="false"
     inkscape:zoom="36.636364"
     inkscape:cx="10.986352"
     inkscape:cy="11"
     inkscape:window-width="1920"
     inkscape:window-height="1008"
     inkscape:window-x="0"
     inkscape:window-y="0"
     inkscape:window-maximized="1"
     inkscape:current-layer="svg1559" />
  <defs
     id="defs1556" />
  <path
     d="M 11.000636,1 C 10.109683,3.182693 9.572272,4.612321 8.580751,6.730107 9.18928,7.374364 9.934949,8.120929 11.145906,8.968264 9.843517,8.432293 8.956636,7.89805 8.292234,7.339621 7.023375,9.986671 5.033221,13.753614 0.999978,21 4.169696,19.170421 6.799818,18.043821 9.08967,17.6131 8.99112,17.190493 8.936264,16.731321 8.94033,16.253864 l 0.0029,-0.09854 c 0.04978,-2.030721 0.935696,-3.832407 2.187288,-3.726757 1.251596,0.10565 1.98177,2.080036 1.930976,4.11075 -0.0092,0.381972 -0.05178,0.7487 -0.126988,1.089015 2.264451,0.443935 4.9406,1.567485 8.065516,3.371664 -0.61665,-1.134722 -1.169306,-2.155672 -1.694532,-3.129886 -0.827957,-0.642028 -1.689444,-1.477071 -3.451019,-2.3812 1.209942,0.314922 2.07955,0.676572 2.755131,1.082922 C 13.265909,6.622629 12.832114,5.300779 11.000443,1.000607 Z"
     style="fill:#17a1d9;fill-opacity:1"
     id="path4008" />
</svg>
