<?xml version="1.0" encoding="UTF-8" standalone="no"?>
<!-- Created with Inkscape (http://www.inkscape.org/) -->

<svg
   width="16"
   height="16"
   viewBox="0 0 16 16"
   version="1.1"
   id="svg1559"
   inkscape:version="1.2.2 (1:1.2.2+202305151914+b0a8486541)"
   sodipodi:docname="application-x-hwp.svg"
   xmlns:inkscape="http://www.inkscape.org/namespaces/inkscape"
   xmlns:sodipodi="http://sodipodi.sourceforge.net/DTD/sodipodi-0.dtd"
   xmlns="http://www.w3.org/2000/svg"
   xmlns:svg="http://www.w3.org/2000/svg">
  <sodipodi:namedview
     id="namedview1561"
     pagecolor="#ffffff"
     bordercolor="#000000"
     borderopacity="0.25"
     inkscape:showpageshadow="2"
     inkscape:pageopacity="0.0"
     inkscape:pagecheckerboard="0"
     inkscape:deskcolor="#d1d1d1"
     inkscape:document-units="px"
     showgrid="false"
     inkscape:zoom="50.375"
     inkscape:cx="8"
     inkscape:cy="8"
     inkscape:window-width="1920"
     inkscape:window-height="1008"
     inkscape:window-x="0"
     inkscape:window-y="0"
     inkscape:window-maximized="1"
     inkscape:current-layer="svg1559" />
  <defs
     id="defs1556" />
  <path
     id="rect318"
     style="opacity:1;fill:#3daee9;fill-opacity:1"
     d="M 7,1 V 2 H 3 v 1 h 9 V 2 H 8 V 1 Z M 7.5,4 A 3.5,3.5 0 0 0 4,7.5 3.5,3.5 0 0 0 7.5,11 3.5,3.5 0 0 0 11,7.5 3.5,3.5 0 0 0 7.5,4 Z m 0,1 A 2.5,2.5 0 0 1 10,7.5 2.5,2.5 0 0 1 7.5,10 2.5,2.5 0 0 1 5,7.5 2.5,2.5 0 0 1 7.5,5 Z M 7,12 v 1 h 1 v -1 z m -4,1 v 2 h 9 V 14 H 4 v -1 z" />
</svg>
