<?xml version="1.0" encoding="UTF-8" standalone="no"?>
<!-- Created with Inkscape (http://www.inkscape.org/) -->

<svg
   width="16"
   height="16"
   viewBox="0 0 16 16"
   version="1.1"
   id="svg1559"
   inkscape:version="1.2.2 (1:1.2.2+202305151914+b0a8486541)"
   sodipodi:docname="application-x-alpm-package.svg"
   xmlns:inkscape="http://www.inkscape.org/namespaces/inkscape"
   xmlns:sodipodi="http://sodipodi.sourceforge.net/DTD/sodipodi-0.dtd"
   xmlns="http://www.w3.org/2000/svg"
   xmlns:svg="http://www.w3.org/2000/svg">
  <sodipodi:namedview
     id="namedview1561"
     pagecolor="#ffffff"
     bordercolor="#000000"
     borderopacity="0.25"
     inkscape:showpageshadow="2"
     inkscape:pageopacity="0.0"
     inkscape:pagecheckerboard="0"
     inkscape:deskcolor="#d1d1d1"
     inkscape:document-units="px"
     showgrid="false"
     inkscape:zoom="50.375"
     inkscape:cx="7.9900744"
     inkscape:cy="8"
     inkscape:window-width="1920"
     inkscape:window-height="1008"
     inkscape:window-x="0"
     inkscape:window-y="0"
     inkscape:window-maximized="1"
     inkscape:current-layer="svg1559" />
  <defs
     id="defs1556" />
  <path
     d="M 8.0004232,1 C 7.3767575,2.5278817 7.0005706,3.5286191 6.3065074,5.0110661 6.7324768,5.462045 7.2544439,5.9846393 8.102112,6.5777725 7.1904417,6.2025937 6.5696263,5.8286244 6.104546,5.4377249 5.2163466,7.2906559 3.8232419,9.9275102 0.999978,14.999969 3.2187757,13.719267 5.0598571,12.930648 6.6627499,12.629144 6.5937651,12.33332 6.555366,12.0119 6.5582122,11.677681 l 0.00203,-0.06898 C 6.5950882,10.1872 7.2152279,8.9260225 8.0913404,8.9999773 c 0.8761153,0.073955 1.3872359,1.4560217 1.3516802,2.8775187 -0.00644,0.26738 -0.036246,0.524089 -0.088891,0.762309 1.5851114,0.310754 3.4584124,1.097237 5.6458484,2.360159 -0.431654,-0.794303 -0.818512,-1.508967 -1.18617,-2.190915 C 13.23424,12.359632 12.6312,11.775104 11.3981,11.142215 c 0.846958,0.220445 1.455682,0.473599 1.928588,0.758043 C 9.5861108,4.9358316 9.282455,4.0105387 8.0002881,1.0004249 Z"
     style="fill:#17a1d9;fill-opacity:1;stroke-width:0.699998"
     id="path4008" />
</svg>
