<?xml version="1.0" encoding="UTF-8" standalone="no"?>
<svg
   height="16"
   width="16"
   version="1.1"
   id="svg11"
   sodipodi:docname="libreoffice-math.svg"
   inkscape:version="1.4.2 (ebf0e940d0, 2025-05-08)"
   xmlns:inkscape="http://www.inkscape.org/namespaces/inkscape"
   xmlns:sodipodi="http://sodipodi.sourceforge.net/DTD/sodipodi-0.dtd"
   xmlns:xlink="http://www.w3.org/1999/xlink"
   xmlns="http://www.w3.org/2000/svg"
   xmlns:svg="http://www.w3.org/2000/svg">
  <defs
     id="defs11">
    <linearGradient
       id="b-7"
       y1="1052.3"
       y2="1039.3"
       gradientUnits="userSpaceOnUse"
       x2="0"
       gradientTransform="translate(-91.11,-1042.3)">
      <stop
         stop-color="#a0aab4"
         id="stop3-8"
         offset="0"
         style="stop-color:#e898c0;stop-opacity:1;" />
      <stop
         offset="1"
         stop-color="#d8dce0"
         id="stop4-4"
         style="stop-color:#eed6e5;stop-opacity:1;" />
    </linearGradient>
    <linearGradient
       id="a-3"
       y1="785.71002"
       y2="727.71002"
       gradientUnits="userSpaceOnUse"
       x2="0"
       gradientTransform="matrix(0.72727,0,0,0.68966,-66.830789,8.1621558)">
      <stop
         stop-color="#6c7a89"
         id="stop1-6"
         offset="0"
         style="stop-color:#e1538e;stop-opacity:1;" />
      <stop
         offset="1"
         stop-color="#768492"
         id="stop2-1"
         style="stop-color:#e1539e;stop-opacity:1;" />
    </linearGradient>
    <linearGradient
       id="linearGradient11"
       y1="16"
       x1="16"
       y2="32"
       x2="32"
       gradientUnits="userSpaceOnUse">
      <stop
         stop-color="#383e51"
         id="stop10"
         offset="0"
         style="stop-color:#513849;stop-opacity:1;" />
      <stop
         offset="1"
         stop-color="#655c6f"
         stop-opacity="0"
         id="stop11"
         style="stop-color:#6f5c67;stop-opacity:0;" />
    </linearGradient>
    <linearGradient
       inkscape:collect="always"
       xlink:href="#linearGradient11"
       id="linearGradient12"
       gradientUnits="userSpaceOnUse"
       gradientTransform="translate(-384.57,-499.8)"
       x1="389.57001"
       y1="505.79999"
       x2="398.57001"
       y2="514.79999" />
    <linearGradient
       inkscape:collect="always"
       xlink:href="#b-7"
       id="linearGradient14"
       gradientUnits="userSpaceOnUse"
       gradientTransform="translate(-384.57,-499.8)"
       x1="388.57001"
       y1="512.04022"
       x2="388.57001"
       y2="505.79999" />
    <linearGradient
       id="a-3-3"
       y1="785.71002"
       y2="727.71002"
       gradientUnits="userSpaceOnUse"
       x2="0"
       gradientTransform="matrix(0.72727,0,0,0.68966,-66.830789,8.1621558)">
      <stop
         stop-color="#6c7a89"
         id="stop1-6-6"
         offset="0"
         style="stop-color:#e1538e;stop-opacity:1;" />
      <stop
         offset="1"
         stop-color="#768492"
         id="stop2-1-7"
         style="stop-color:#e1539b;stop-opacity:1;" />
    </linearGradient>
    <linearGradient
       inkscape:collect="always"
       xlink:href="#a-3"
       id="linearGradient2"
       x1="0"
       y1="16"
       x2="0"
       y2="0"
       gradientUnits="userSpaceOnUse" />
  </defs>
  <sodipodi:namedview
     id="namedview11"
     pagecolor="#ffffff"
     bordercolor="#000000"
     borderopacity="0.25"
     inkscape:showpageshadow="2"
     inkscape:pageopacity="0.0"
     inkscape:pagecheckerboard="0"
     inkscape:deskcolor="#d1d1d1"
     inkscape:zoom="49.75"
     inkscape:cx="7.9899497"
     inkscape:cy="8"
     inkscape:window-width="1920"
     inkscape:window-height="1010"
     inkscape:window-x="0"
     inkscape:window-y="0"
     inkscape:window-maximized="1"
     inkscape:current-layer="svg11" />
  <path
     d="M 2,0 V 16 H 14 V 5.5 L 8.5,0 Z"
     style="fill:url(#linearGradient2);fill-opacity:1"
     id="path6" />
  <path
     d="M 2.00001,14.99999 H 14 V 16 H 2.00001 Z"
     fill="#2e3132"
     fill-opacity="0.294"
     stroke-width="0.637385"
     id="path7" />
  <path
     d="m 14,4 c 0,0 0.02,-3.99 0,-4 h -4 z"
     style="fill:#d84175;fill-opacity:1"
     id="path8" />
  <path
     d="M 14,8 12.20312,6 h -4 L 6,10 5.9375,12.24023 5,12 8,15 h 6 z"
     style="opacity:0.2;fill:url(#linearGradient12);fill-rule:evenodd"
     id="path9" />
  <path
     d="M 8.20312,6 6,10.03906 V 7 H 4 v 1 h 1 v 4 L 5.9375,12.24023 8.79687,7 H 12 V 6 Z M 10.5,8 C 9.67157,8 9,8.67157 9,9.5 v 1 C 9,11.32843 9.67157,12 10.5,12 H 12 v -1.5 -1 C 12,8.67157 11.32843,8 10.5,8 Z m 0,1 C 10.77614,9 11,9.22386 11,9.5 V 11 H 10.5 C 10.22386,11 10,10.77614 10,10.5 v -1 C 10,9.22386 10.22386,9 10.5,9 Z"
     style="clip-rule:evenodd;fill:url(#linearGradient14);fill-rule:evenodd"
     id="path10" />
</svg>
