<?xml version="1.0" encoding="UTF-8" standalone="no"?>
<svg
   viewBox="0 0 22 22"
   version="1.1"
   id="svg1"
   sodipodi:docname="cpu.svg"
   inkscape:version="1.4.2 (ebf0e940d0, 2025-05-08)"
   xmlns:inkscape="http://www.inkscape.org/namespaces/inkscape"
   xmlns:sodipodi="http://sodipodi.sourceforge.net/DTD/sodipodi-0.dtd"
   xmlns="http://www.w3.org/2000/svg"
   xmlns:svg="http://www.w3.org/2000/svg">
  <sodipodi:namedview
     id="namedview1"
     pagecolor="#ffffff"
     bordercolor="#999999"
     borderopacity="1"
     inkscape:showpageshadow="2"
     inkscape:pageopacity="0"
     inkscape:pagecheckerboard="0"
     inkscape:deskcolor="#d1d1d1"
     showgrid="true"
     inkscape:zoom="64"
     inkscape:cx="10.1875"
     inkscape:cy="15.328125"
     inkscape:window-width="1920"
     inkscape:window-height="1008"
     inkscape:window-x="0"
     inkscape:window-y="0"
     inkscape:window-maximized="1"
     inkscape:current-layer="svg1">
    <inkscape:grid
       id="grid1"
       units="px"
       originx="0"
       originy="0"
       spacingx="1"
       spacingy="1"
       empcolor="#0099e5"
       empopacity="0.30196078"
       color="#0099e5"
       opacity="0.14902"
       empspacing="5"
       enabled="true"
       visible="true" />
  </sodipodi:namedview>
  <defs
     id="defs3051">
    <style
       type="text/css"
       id="current-color-scheme">
      .ColorScheme-Text {
        color:#232629;
      }
      </style>
  </defs>
  <path
     style="fill:currentColor;fill-opacity:1;stroke:none;stroke-width:0.874121"
     d="M 3.998595,4.0001969 4,16 H 3 v 1 l 1.001405,5e-6 -7.593e-4,0.99914 c 6.4671913,0 -3.285e-4,0.005 13.9970433,-3.72e-4 l 0.0047,-13.9975465 z m 1.0022187,0.9994699 12.0005803,-4.752e-4 -0.0028,12.0016164 -5.684874,-0.0017 -6.3145457,-0.0019 z m 6.8601693,9.4998222 c -10.4756493,-14.01504907 -10.4756493,-14.01504907 0,0 z M 4,14 H 3 v 1 l 1.001405,5e-6 M 4,5 H 3 v 1 l 1.001405,5e-6 M 4,7 H 3 v 1 l 1.001405,5e-6 M 4,9 H 3 v 1 l 1.001405,5e-6 M 4,12 H 3 v 1 l 1.001405,5e-6 M 6,3 H 5 v 1 l 1.001405,5e-6 M 8,3 H 7 v 1 l 1.001405,5e-6 M 17,3 h -1 v 1 l 1.001405,5e-6 M 15,3 h -1 v 1 l 1.001405,5e-6 M 13,3 h -1 v 1 l 1.001405,5e-6 M 10,3 H 9 v 1 l 1.001405,5e-6 M 19,5 h -1 v 1 l 1.001405,5e-6 M 19,7 h -1 v 1 l 1.001405,5e-6 M 19,9 h -1 v 1 l 1.001405,5e-6 M 19,12 h -1 v 1 l 1.001405,5e-6 M 19,14 h -1 v 1 l 1.001405,5e-6 M 19,16 h -1 v 1 l 1.001405,5e-6 M 6,18 H 5 v 1 l 1.001405,5e-6 M 8,18 H 7 v 1 l 1.001405,5e-6 M 17,18 h -1 v 1 l 1.001405,5e-6 M 15,18 h -1 v 1 l 1.001405,5e-6 M 10,18 H 9 v 1 l 1.001405,5e-6 M 13,18 h -1 v 1 l 1.001405,5e-6"
     class="ColorScheme-Text"
     id="path1"
     sodipodi:nodetypes="ccccccccccccccccc" />
  <rect
     width="4.0021524"
     x="6.0000014"
     y="15.000004"
     height="1"
     style="fill:#232629;fill-opacity:1;stroke-width:1.15385"
     id="rect4172"
     rx="0"
     ry="0" />
</svg>
