<?xml version="1.0" encoding="UTF-8" standalone="no"?>
<svg
   viewBox="0 0 64 64"
   version="1.1"
   id="svg4"
   sodipodi:docname="folder-steam.svg"
   inkscape:version="1.4.2 (ebf0e940d0, 2025-05-08)"
   xmlns:inkscape="http://www.inkscape.org/namespaces/inkscape"
   xmlns:sodipodi="http://sodipodi.sourceforge.net/DTD/sodipodi-0.dtd"
   xmlns="http://www.w3.org/2000/svg"
   xmlns:svg="http://www.w3.org/2000/svg">
  <sodipodi:namedview
     id="namedview4"
     pagecolor="#ffffff"
     bordercolor="#000000"
     borderopacity="0.25"
     inkscape:showpageshadow="2"
     inkscape:pageopacity="0.0"
     inkscape:pagecheckerboard="0"
     inkscape:deskcolor="#d1d1d1"
     inkscape:zoom="12.390625"
     inkscape:cx="32"
     inkscape:cy="32"
     inkscape:window-width="1920"
     inkscape:window-height="1007"
     inkscape:window-x="0"
     inkscape:window-y="0"
     inkscape:window-maximized="1"
     inkscape:current-layer="svg4" />
  <defs
     id="defs3051">
    <style
       type="text/css"
       id="current-color-scheme">
      .ColorScheme-Text {
        color:#fcfcfc;
      }
      .ColorScheme-Accent {
        color:#3daee9;
      }
      </style>
  </defs>
  <path
     style="fill:currentColor"
     d="M 4 6 L 4 11 L 4 20 L 3 20 L 3 21 L 3 21 C 3 21 3 21 3 21 L 3 57 L 3 58 L 4 58 L 60 58 L 61 58 L 61 57 L 61 21 L 61 21 L 61 16 L 60 16 L 60 11 C 60 11 60 11 60 11 L 60 11 L 60 10 L 32 10 L 28 6 L 4 6 z "
     class="ColorScheme-Accent"
     id="path1" />
  <path
     style="fill-opacity:0.33"
     d="M 4 6 L 4 11 L 4 20 L 22 20 L 26 16 L 60 16 L 60 11 C 60 11 60 11 60 11 L 60 11 L 60 10 L 32 10 L 28 6 L 4 6 z "
     id="path2" />
  <path
     style="fill:#ffffff;fill-opacity:0.2"
     d="M 28 6 L 31 11 L 33 11 L 60 11 L 60 10 L 33 10 L 32 10 L 28 6 z M 26 16 L 22 20 L 3 20 L 3 21 L 23 21 L 26 16 z "
     id="path3" />
  <path
     style="fill-opacity:0.2;fill-rule:evenodd"
     d="M 26 16 L 20 19 L 4 19 L 4 20 L 22 20 L 26 16 z M 3 57 L 3 58 L 4 58 L 60 58 L 61 58 L 61 57 L 60 57 L 4 57 L 3 57 z "
     class="ColorScheme-Text"
     id="path4" />
  <path
     id="path5"
     style="fill:currentColor;stroke-width:1.5;fill-opacity:0.6"
     class="ColorScheme-Text"
     d="M 39 27 C 35.702673 27 33 29.70268 33 33 C 33 34.182005 33.357576 35.280821 33.955078 36.212891 L 34.466797 41.269531 C 34.616845 41.215123 34.769354 41.170885 34.923828 41.132812 A 4.5 4.5 0 0 0 34.466797 41.269531 A 4.5 4.5 0 0 0 32.558594 42.599609 L 27.996094 40.662109 A 4.5 4.5 0 0 0 28 40.5 A 4.5 4.5 0 0 0 23.5 36 A 4.5 4.5 0 0 0 19 40.5 A 4.5 4.5 0 0 0 23.5 45 A 4.5 4.5 0 0 0 26.894531 43.455078 L 31.5 45.410156 A 4.5 4.5 0 0 0 31.5 45.5 A 4.5 4.5 0 0 0 36 50 A 4.5 4.5 0 0 0 40.5 45.5 A 4.5 4.5 0 0 0 39.207031 42.34375 A 4.5 4.5 0 0 0 38.820312 41.998047 C 38.954378 42.106055 39.085064 42.219802 39.207031 42.34375 L 41.90625 38.210938 C 43.739476 37.180571 45 35.239662 45 33 C 45 29.70268 42.297327 27 39 27 z M 38.976562 27.970703 C 41.737986 27.970703 43.976562 30.209279 43.976562 32.970703 C 43.976562 35.732127 41.737989 37.970703 38.976562 37.970703 C 36.215139 37.970703 33.976562 35.732127 33.976562 32.970703 C 33.976562 30.209279 36.215138 27.970703 38.976562 27.970703 z M 39 30 C 37.343146 30 36 31.343146 36 33 C 36 34.656854 37.343146 36 39 36 C 40.656854 36 42 34.656854 42 33 C 42 31.343146 40.656854 30 39 30 z M 23.5 37 A 3.5 3.5 0 0 1 26.990234 40.234375 L 24.310547 39.097656 C 23.545607 38.772959 22.668448 39.127639 22.34375 39.892578 C 22.019052 40.657518 22.373732 41.534677 23.138672 41.859375 L 25.910156 43.037109 A 3.5 3.5 0 0 1 23.5 44 A 3.5 3.5 0 0 1 20 40.5 A 3.5 3.5 0 0 1 23.5 37 z M 36 41 C 36.175455 41.000018 36.348966 41.01498 36.521484 41.035156 A 4.5 4.5 0 0 0 36 41 z M 36 41 A 4.5 4.5 0 0 0 35.548828 41.025391 C 35.698665 41.010249 35.848931 41.000027 36 41 z M 35.373047 41.048828 A 4.5 4.5 0 0 0 35.044922 41.107422 C 35.153553 41.083802 35.262972 41.06434 35.373047 41.048828 z M 36.714844 41.0625 C 36.831842 41.081369 36.947787 41.104889 37.0625 41.132812 A 4.5 4.5 0 0 0 36.714844 41.0625 z M 37.240234 41.177734 C 37.409639 41.226345 37.575996 41.281612 37.738281 41.349609 C 37.901685 41.418076 38.060394 41.498544 38.214844 41.585938 A 4.5 4.5 0 0 0 37.738281 41.349609 A 4.5 4.5 0 0 0 37.240234 41.177734 z M 38.359375 41.675781 C 38.462873 41.739619 38.563754 41.806601 38.662109 41.878906 A 4.5 4.5 0 0 0 38.359375 41.675781 z M 36 42 A 3.5 3.5 0 0 1 39.5 45.5 A 3.5 3.5 0 0 1 36 49 A 3.5 3.5 0 0 1 32.517578 45.841797 L 35.103516 46.939453 C 35.868455 47.264151 36.747568 46.909471 37.072266 46.144531 C 37.396963 45.379592 37.042283 44.502432 36.277344 44.177734 L 33.535156 43.013672 A 3.5 3.5 0 0 1 36 42 z " />
</svg>
